<?xml version="1.0" encoding="UTF-8"?>
<!DOCTYPE svg PUBLIC "-//W3C//DTD SVG 1.1//EN" "http://www.w3.org/Graphics/SVG/1.1/DTD/svg11.dtd">
<!-- Creator: CorelDRAW SE -->
<svg xmlns="http://www.w3.org/2000/svg" xml:space="preserve" width="496.553mm" height="408.215mm" version="1.1" style="shape-rendering:geometricPrecision; text-rendering:geometricPrecision; image-rendering:optimizeQuality; fill-rule:evenodd; clip-rule:evenodd"
viewBox="0 0 106580 87619"
 xmlns:xlink="http://www.w3.org/1999/xlink">
 <defs>
  <style type="text/css">
   <![CDATA[
    .fil0 {fill:#292929}
   ]]>
  </style>
 </defs>
 <g id="Vrstva_x0020_1">
  <metadata id="CorelCorpID_0Corel-Layer"/>
  <g id="_2019872520">
   <path class="fil0" d="M49731 86010l469 -198c1607,-335 1475,-279 2370,-1904l162 -229c25,1223 -1393,2379 -3001,2331zm-2675 235c107,-587 448,-408 658,-1473 557,519 -274,1297 -658,1473zm-1742 -4054c77,486 409,111 1178,996 1214,1396 1057,3570 -1873,3399 -740,-44 -1181,-236 -1405,-796 -206,-515 -289,-1380 -159,-1955l204 -641c8,-18 20,-39 28,-56 224,-458 577,-1051 1005,-1275 388,-203 164,-340 836,-275 -176,317 -820,977 -590,1571 77,-169 167,-527 266,-778 149,-375 266,-465 465,-711 703,-17 1656,715 2008,1068 394,396 298,530 340,1213 15,239 123,533 -81,891l-216 248c93,-370 66,-619 -100,-1031 -377,-938 -1379,-2038 -1906,-1868zm-943 4050c-621,-668 -1120,-1652 -923,-2591 112,-535 210,-472 409,-765 -229,63 -201,39 -341,220 -133,170 -61,69 -113,214 -10,26 -61,259 -62,263 -169,1045 424,2426 1030,2659zm4899 -1096c-352,-1184 -916,-803 -262,-2706 -357,249 -311,111 -415,507 -204,776 80,1840 677,2199zm979 -3343c-237,230 -112,102 -644,245 -305,82 -332,112 -514,316l1232 -238 184 317c390,-90 139,-168 579,-82 249,49 349,140 544,231 518,243 480,232 873,559 30,897 -565,1837 -1081,2132 -186,107 -1917,633 -2627,160 -391,-259 -536,-487 -549,-1058 -11,-480 -177,-671 -51,-1046 118,-349 114,-134 340,-601 169,-348 197,-488 430,-680 293,-241 782,-385 1284,-255zm-1219 578c-148,135 146,-134 0,0zm-1793 -2082l156 228c164,272 260,419 293,731 43,417 -23,998 -17,1450 -603,-582 -835,-1414 -534,-2209 52,-137 54,-131 102,-200zm546 2450l47 -1332c358,65 157,66 411,191 394,194 -43,-28 350,64 -163,265 3,217 -268,81 -13,346 -28,298 -163,512 -59,94 -66,131 -118,211 -11,17 -19,39 -32,56l-227 217zm2910 -813c67,-934 -113,-652 1116,-1258 60,112 660,1655 687,1798 -217,-72 -504,-180 -699,-281 -19,-348 72,-778 19,-913 -318,1173 151,839 -1123,654zm-4800 -758c12,-8 190,-368 537,169 -5,3 111,227 -326,59 -237,-91 -114,-59 -211,-228zm7171 -2967c-383,2037 -918,2200 249,4216 49,-98 153,190 12,-260 -34,-107 -85,-153 -151,-264 -673,-1136 -405,-2595 119,-3689 483,-1010 945,-499 1940,-779 319,-90 406,-49 662,146 619,470 1317,1376 1439,2212 111,762 -63,942 -227,1562 284,-227 363,-608 409,-1106 46,-501 -40,-989 -230,-1272 204,-298 618,1022 232,1938 -7,19 -17,41 -25,60 -533,1250 -1585,2054 -3122,2291 -2013,309 -2981,-4127 -1307,-5055zm3368 3818c400,-90 579,-317 675,-674l-675 674zm-2398 891c-458,-191 -323,-305 -635,-488 156,246 286,429 635,488zm-7980 -1995c112,-246 116,-228 364,-352l-22 510c-96,-44 -152,-60 -176,-71 -14,-6 -42,-20 -56,-27 -13,-7 -44,-23 -55,-29 -12,-6 -37,-20 -55,-31zm761 762c-305,-226 -212,-895 -150,-1069 130,-362 -35,-85 196,-227 -262,-148 -77,-22 -164,-256 127,-89 108,-74 228,-192l240 -209c35,366 -153,740 -270,1700l-80 253zm-4751 -3170c264,320 126,484 328,1193 126,441 322,683 403,1060 -784,-301 -874,-1261 -731,-2253zm5595 -1948c-1,0 -301,6 0,-396 158,108 169,-33 156,185 -12,200 -55,187 -156,211zm622 -569c-68,67 186,239 -355,144 -98,-18 -197,-113 -283,-170 38,-31 -102,-173 343,-122 160,19 195,82 295,148zm-4940 -127c221,428 -218,517 -416,1067 -468,1300 578,3178 1208,3585 -460,-755 -436,-399 -986,-1760 -118,-291 -243,-725 -241,-1128 4,-543 88,-840 428,-1050l86 424c243,-415 -170,-576 431,-1062 -12,-15 -36,-55 -39,-41 0,1 -86,-19 -8,-260 47,-141 14,149 60,-208 -355,231 -76,290 -523,433zm614 -512c20,-8 51,-41 58,-26l264 -311c838,-50 1721,-31 2253,362 618,456 951,1022 889,1824 -121,1577 64,1903 -1036,3029 -736,753 -2433,1015 -3074,823 -999,-299 -1508,-3885 -378,-4862l883 -851c7,2 36,16 43,17l98 -5zm842 5478c-148,-358 -69,4 -563,-592 -218,-262 -346,-405 -486,-824 -314,-936 -383,-1275 83,-1932 -349,28 -413,400 -444,737 -77,845 48,717 197,1133l474 861c239,331 416,499 739,617zm12966 -5750l100 116c92,105 -1609,2107 -2040,1681 -145,-143 -304,-93 301,-484 203,-131 409,-258 631,-385 340,-194 783,-565 1008,-928zm-12049 -665c1060,189 840,276 1963,-3 38,601 193,777 344,1289 -1774,-117 -356,-234 -1829,-812 -417,-164 -304,-77 -478,-474zm13081 -2623c8,902 248,1198 94,2047 -114,-120 -162,-126 -206,-429 -115,-792 -254,-1257 112,-1618zm-5122 5245c-512,523 -1481,1167 -1775,2117 -424,1370 296,921 -1242,1726 -406,213 -901,238 -1369,342 -820,184 -1262,-154 -1422,-959 -76,-383 -63,-336 208,-506 -399,34 -353,-17 -420,-89 -287,-310 27,-1378 41,-1545 109,-1282 -289,-950 471,-1721 627,72 1486,604 2026,462 635,-167 2161,-957 1769,-1577 -532,238 -823,1533 -2404,1137 -1101,-276 -2538,-2230 -587,-2300 -33,-1 -204,-7 -223,-13l-208 -87c-19,-9 -51,-23 -72,-41 465,-135 913,-693 1252,-1043 376,-387 621,-848 715,-1547 744,33 1104,439 1524,744 16,705 -408,1048 258,2884 145,399 376,815 586,1092 109,145 271,317 400,441l472 483zm-3546 -66l518 118 -518 -118zm-5680 -5780l552 1933c-244,-88 -221,3 -374,-320 -235,-492 -206,-1110 -178,-1613zm6824 -894c-140,405 99,226 -234,343 -124,-751 -488,-1119 -692,-1724l1365 -73 220 2244c71,210 -23,129 156,187l-237 -2504c926,-63 1610,-554 2217,-597 -35,582 40,621 46,1190 8,852 -144,576 -502,961 -263,-188 -152,-167 -301,-455l4 421c-91,61 148,184 -227,39 5,15 31,14 34,34 4,20 29,29 34,34 110,139 167,28 48,205 -107,159 -329,257 -502,313l-115 -1262c-119,-470 38,-196 -203,-280 -50,122 102,841 140,1147 89,717 162,709 -309,1150 -336,-151 -561,-277 -609,-717 -163,200 -94,180 -351,121l18 -777zm-70 -1092c-153,273 292,1693 341,1761 19,-578 7,-1489 -341,-1761zm-783 468l329 571c70,249 75,529 126,742 -569,-94 -182,-213 -455,-1313zm7901 1750l-244 -260c-73,-114 -85,-155 -148,-283 367,-309 580,-240 765,-517 251,263 -85,-42 -373,1060zm-14186 655c-78,-102 -52,-13 -109,-191l-108 -757c21,-361 241,-605 452,-753 -22,551 -225,898 -235,1701zm14818 362c-30,-694 25,-1290 412,-1830l394 -419 -172 548c-81,230 -132,352 -199,562 -178,563 -197,912 -435,1139zm-2943 -2106l-132 123c113,282 1098,820 1061,2019 -378,-410 -534,-924 -1386,-1546 -26,321 350,501 550,701 691,686 1372,1834 871,2876 36,19 43,9 110,31l148 53c-51,996 -131,1019 -815,1423 -923,546 -2769,756 -3413,-193 -968,-1425 -912,-3910 588,-4915 295,-198 1145,-818 1426,-857l1667 369c95,-132 129,220 -53,-43 -196,-281 -51,-168 -11,-226 89,-133 66,-59 148,-137 300,196 425,299 204,574 409,238 488,319 821,789 370,520 318,499 325,1275 7,658 50,876 -113,1479 -153,562 -224,869 -692,1089 61,-1300 -129,-3832 -1080,-4730l-129 -102c-16,-11 -77,-30 -95,-52zm888 166c-335,-198 202,119 0,0zm6704 -718c379,754 1062,1264 872,2704 -132,997 -589,2100 -1302,2368 141,-770 1628,-2270 748,-4046l-108 -230c-17,16 -46,17 -49,49 -20,202 -71,131 44,395 503,1156 -155,3183 -1036,3838 -553,410 -1761,533 -2504,217 -299,-127 95,-30 -163,-55 -941,-91 -1046,-592 -1073,-1551 187,79 107,12 226,158 182,222 266,424 525,590 -766,-1140 -822,-1222 -338,-2765 267,-850 693,-1991 1681,-2137 -25,-248 -73,-141 22,-226 118,-107 19,-26 169,-67l1114 -14c454,86 670,350 962,616 340,310 104,156 222,87 178,-173 -447,-571 -583,-707 -105,-106 -43,-40 -127,-165 1140,-218 1435,-526 2210,-1007 549,-340 1511,-893 1714,-1361 -53,434 -1029,814 -1405,994 12,-26 25,-92 31,-79 6,13 21,-59 29,-78l426 -1027c455,-1275 397,-3169 -267,-4194 -780,-1201 -2134,-1477 -3561,-1466 -534,3 -918,235 -1351,331 31,-754 31,-1010 -129,-1763 -108,-509 -382,-820 -161,-1240 153,-292 69,-166 332,-265l-48 616c188,-257 178,-1081 558,-1213 327,-113 14,-23 147,17 202,61 -175,11 193,92 59,-352 45,-394 345,-524 247,-107 520,-144 820,-165 -47,155 -82,239 -101,432 591,-820 -42,-398 2064,-706 620,-91 1899,-185 2560,-203 1285,-34 3454,-588 4548,-1027 796,-320 2865,-1636 3115,-2431 94,-300 -11,-712 -142,-1033 -62,-151 -158,-283 -251,-418 -238,-345 -97,-250 -223,-543 -58,-133 -179,-252 -419,-141 -197,91 -149,475 -617,740 -312,177 -161,74 -443,-26 -273,167 -233,67 -427,331 283,-126 168,-164 510,-163 -233,356 -1503,1268 -1984,1473 -423,180 -851,294 -1253,514 -1313,720 -2710,745 -4148,1083 -536,126 -1068,51 -1592,188 -484,125 -868,371 -1407,378 455,-869 3035,-2314 3493,-3790 712,-73 1132,-341 1579,-615l986 -703c142,-103 227,-129 359,-231 435,-338 828,-687 1249,-1027 439,-355 757,-687 1235,-989l-7 -399c-1500,1272 -3382,3371 -5390,3644 45,-649 -428,-2122 -1299,-1867 -629,184 -1424,2051 1014,2163 -61,901 -2104,2293 -2723,2932 -478,494 -897,1028 -1595,1203 -462,116 -1112,315 -1326,757l-270 514c9,-511 148,-834 159,-1442l-90 -2273c-227,-1907 -1772,-3985 -3886,-3555 -481,98 -990,363 -1320,371 -293,-76 -731,-685 -2026,-832l-2679 -174 -89 346c1962,-4 3241,-153 4559,864 -50,148 -821,1550 -397,2264 444,747 1436,-308 1636,-721 50,-426 -582,-1149 -681,-1527 789,-294 1744,-555 2594,-130 1661,830 2086,2567 2088,4356 1,1123 -94,1882 -376,2870 -439,-97 -604,-423 -1087,-429 174,235 468,303 727,545l648 614 -111 1096c672,-69 644,-426 871,600 366,1661 7,1725 -421,2236 -166,198 -287,361 -447,558 -563,690 -221,578 -1180,872 -1072,327 -2351,499 -3460,99 -25,42 -44,143 -108,64 -75,-93 -38,-17 -85,-208l665 3c-110,-250 -101,-198 -9,-448 -202,244 -44,115 -326,220 -514,-660 -778,-1732 -678,-2878 65,-756 211,-1523 622,-2107 181,-257 343,-204 221,-462 -1032,568 -1048,3010 -845,4147 124,694 314,823 481,1345 -324,-54 -345,-60 -512,-316 -819,-1256 -1237,-3120 -541,-4465 323,-33 371,-88 580,72 -1,-472 -217,-381 -575,-307 281,-660 1055,-815 1357,-1282l-426 181c87,-272 302,-374 598,-520 107,-53 778,-227 935,-245 -254,263 -865,358 -1107,584l611 -129 -73 680c-11,-446 194,-656 399,-871 499,-61 745,-21 1182,39l1007 283c114,-516 54,-468 -395,-620 -330,-111 -447,-276 -956,-299 -1538,-72 -3031,1440 -3716,2598 -161,271 -311,604 -525,791 -388,-907 -662,-988 -1357,-1583 -413,-354 -895,-640 -1231,-1080 -666,-51 -847,228 -1386,343 -550,117 -989,70 -1379,385 -234,190 -577,687 -737,1024 -162,341 -412,945 -531,1321 -445,1409 -153,3089 1001,3947 355,264 875,433 1190,684 -220,513 -455,1069 -380,1829 97,982 289,1055 625,1719 -497,8 -410,-101 -697,-129 -217,-22 -386,87 -660,123 -841,111 -1813,1263 -2274,1939 -1018,1495 -1951,1389 -290,3838 123,182 234,334 366,471l422 392c14,18 32,48 49,72 -794,120 -1639,522 -2132,1068 -1291,1430 -2052,2469 -1523,4531 196,767 880,1397 1761,1523 -743,948 -495,663 -700,1827 -555,3146 599,4167 3687,3602 -82,283 -275,485 -414,758 140,-167 274,-278 421,-487 597,-847 736,-560 1377,-1489 199,-287 36,-66 179,-193 407,308 669,700 1433,776 1276,127 2273,-462 2954,-1411 476,-664 455,-881 282,-1762 394,172 615,675 1155,693 325,11 1002,-287 1344,-384 1048,-298 1549,-828 2052,-1556 335,-483 629,-1293 684,-1915 15,-163 18,-203 -27,-330 -184,-514 -548,-1042 -845,-1429l-892 -1003c466,-714 1296,-536 2108,-2658 26,13 64,3 77,42l218 180c96,91 159,141 272,215 696,452 937,744 2003,777 967,30 2224,-335 2819,-968 1051,-1118 1436,-3716 193,-4783 -12,-10 -49,-18 -58,-26 -20,-18 28,-206 -252,-118zm-4566 95c-28,-54 1156,-836 854,-1412 -346,118 -113,310 -912,1166 -322,345 -764,689 -1365,759l-994 -798c-166,-171 -37,-89 -103,-285 -991,-195 -1168,-477 -1275,-1645 -70,-765 180,-643 244,-1175 36,-300 -34,-447 76,-694 177,-396 199,-67 338,-395 -226,-216 -320,-41 -468,174l-469 -950c740,98 1298,286 2097,44 499,-151 1461,-678 1718,-702 -492,1564 128,1990 1004,3575 123,223 185,331 323,514 199,266 303,269 396,550 -399,629 -1045,910 -1375,1344l-89 -70zm-4873 75c69,-285 126,-351 156,-774l349 437c-183,225 -238,217 -505,337zm138 -1813c62,72 63,62 137,183 612,1002 739,595 1158,1040 -228,172 -415,177 -682,179 -339,-357 -613,-697 -613,-1402zm-7495 26c301,-203 692,-339 1192,-342 629,-3 811,155 1155,467 473,429 486,304 588,1049 94,683 1387,2033 -606,3866 -557,513 -524,-423 -1395,871 -584,67 -2219,-249 -2556,-722 -379,-532 -506,-2147 -394,-2897 61,-402 422,-1204 965,-1377 -126,495 -890,1431 -761,2370l139 362c30,-553 -104,-1226 367,-1925 228,-339 100,-158 356,-37 -9,-1185 1009,-1120 1472,-916 -236,-703 -1215,-99 -1344,-65 190,-454 1503,-586 1726,-135 9,-690 -555,-312 -904,-569zm-1126 4852l-547 -1205c20,274 119,550 248,766 369,620 220,678 299,439zm8949 -5381c212,-115 236,-204 442,-289 44,688 120,912 208,1451 -540,-204 -626,-610 -650,-1162zm10770 -1537c-356,1724 -357,1699 -1633,2089 -763,233 -1575,396 -2373,198 -136,-34 -224,-46 -311,-129 -185,-178 -129,45 -120,-402 -314,218 84,83 -328,169 -403,-553 -567,-495 -1149,-1552 -257,-467 -643,-1551 -501,-2140l130 4c560,125 79,176 473,170 -242,-114 -403,-345 -477,-711 139,-306 427,-664 638,-899 659,-735 856,-1674 2888,-1848 773,-65 1548,264 2103,768 530,479 1006,1135 1009,2198 -19,-20 -42,-79 -50,-64l-272 -656c-141,581 531,1016 -258,2817 -369,842 -894,1544 -1727,1848 805,105 1596,-1446 1801,-1695 177,-214 -158,-85 157,-165zm-1101 -4131c621,446 846,1093 1080,1323 -158,-439 -685,-1274 -1080,-1323zm-15568 3655c141,195 115,175 133,536 20,403 100,692 281,1050 136,270 142,222 235,513 -407,-51 -409,-26 -593,-848 -137,-615 -63,-691 -56,-1251zm16529 1568l598 -2146c57,-121 60,-99 111,-165 10,545 -203,1932 -709,2311zm-16639 31c-679,-393 -690,-2087 -394,-2685 201,-403 249,-513 745,-534 -469,1485 -659,1420 -351,3219zm1314 -3511c366,-284 895,-533 1358,-761 641,-314 698,-497 1092,-1002 13,15 31,21 36,49l505 1096c595,1100 934,796 1269,1355 465,776 143,-106 526,376l439 938c512,2069 -2236,2524 -2836,2329 -484,-158 -467,-645 -752,-979 3,361 123,650 333,858 -123,120 -18,99 -431,172 335,73 663,143 876,324 -730,73 -2263,445 -2865,-252 -243,-281 -125,6 -149,-384 527,81 368,349 809,466l1053 50c-196,-623 -54,-132 56,-547 -358,244 -356,425 -572,-972 -62,-403 -88,-1205 -321,-1511 -10,17 -19,27 -21,55l441 2727c-288,34 -552,58 -770,-87 -369,-245 -148,-242 92,-423 -548,146 -537,158 -796,-384 -183,-379 -269,-701 -304,-1134 -33,-424 -41,-914 71,-1273 93,-298 107,-239 265,-420l239 -434c5,-14 11,-43 24,-61l734 73c-137,-139 -73,-63 -176,-121l-225 -123zm464 3672l-302 196c250,-100 129,-65 302,-196zm2998 -8985c-283,2323 161,2660 764,4128l361 527c-1848,-869 -1902,-3957 -1125,-4655zm759 4221c-9,-8 -21,16 -21,27 0,5 -9,12 -9,12 2,-3 168,73 30,-39zm-1442 -1966l221 414c49,145 88,293 144,438 1149,2944 3750,2109 5833,1597 -123,712 -661,891 -1677,1255 -781,279 -1759,92 -2485,-128 -755,-228 -1278,-685 -1620,-1270 -511,-872 -562,-1191 -416,-2306zm-351 -468c-150,-326 -75,-1065 -56,-1523 143,156 330,378 345,666 11,222 -113,666 -289,857zm-4460 2793c-567,-213 -640,-371 -936,-1197 -516,-1439 -161,-3758 1076,-3875 537,-51 -454,102 200,-62 159,-40 158,-19 387,94l-83 133c-11,13 -30,42 -44,58 -484,565 -718,406 -1000,1958 -174,960 8,1939 474,2491 -120,-416 -261,-450 -348,-1054 -141,-986 -58,-3243 1220,-3203 -24,-1573 1295,-1560 1973,-976 367,316 46,32 386,198 265,129 721,675 838,947 216,503 117,1337 78,1932 248,102 -209,89 71,-38 201,-90 -91,-115 131,-46 66,173 50,1064 -11,1341 -64,286 -1063,1564 -1969,865 -351,-272 -416,-578 -660,-933 -333,626 910,1297 1061,1470 -843,181 -325,-223 -1104,-62 -637,132 -828,821 -2078,290 -523,-222 -473,-299 -631,-666 -300,-697 -512,-1267 -496,-2222 11,-650 182,-1702 737,-2145l-263 630c-69,188 -142,412 -216,628 -103,306 -109,293 -113,716 -9,1068 534,2889 1320,2728zm4057 -1622l202 -842 -202 842zm-3116 -2965c93,133 53,-68 24,-30 -2,1 -110,-93 -24,30zm-1297 -702c-14,-14 45,-43 52,-28 24,51 542,-577 1054,-729 206,-62 -72,-100 236,-20 389,101 78,26 220,136 -145,282 -313,461 -407,883l-212 -196c-89,-76 -78,-107 -263,-141l-448 78c-92,72 -50,61 -108,143l-124 -126zm-760 500c109,-627 643,-1152 1331,-1241 -184,350 -338,261 -904,918 -58,68 -94,128 -156,177 -195,155 -60,55 -271,146zm13224 -420c-126,-436 331,-707 801,-1221l-465 1041c-129,198 -120,176 -272,193 -12,1 -42,-9 -64,-13zm12362 -4175c163,-35 129,-32 189,-66l142 -112c14,-12 30,-31 43,-43 914,-854 904,-824 1362,-1762 220,217 504,803 411,1080l-101 2c-16,-2 -77,-16 -93,-20 -213,-48 152,-22 -125,-40 -153,586 -896,929 -1406,1212l-502 341c403,-67 464,-261 872,-368 -258,445 -926,689 -1401,808 78,-83 44,-61 146,-145 87,-72 51,-34 155,-108 164,-117 111,-60 228,-187 -332,73 -973,523 -1244,702 -451,297 -2519,696 -3143,748 -581,48 -1238,149 -1713,158 211,-280 348,-236 682,-376 223,-93 435,-207 610,-307 -349,90 -400,196 -1060,389 -383,112 -687,210 -1221,124l-84 -262c-340,162 -236,179 -147,531l-1167 54c-23,3 -150,32 -177,37l107 -126c279,-280 902,-487 1263,-620 521,-192 1082,-320 1472,-538 -1656,330 -2319,881 -3258,1185l99 -570c-244,254 -158,401 -379,753l-932 236c77,-270 176,-443 327,-689 238,-389 93,-261 565,-385 568,-150 831,-330 1543,-413 1455,-168 3516,-414 4820,-981l1345 -594c559,-224 857,-344 1266,-665 355,-279 686,-687 1151,-822 -68,1043 -555,672 -907,1245 165,-56 162,-48 300,-140l166 -153c24,-110 86,39 95,-3 4,-21 26,41 44,57 -14,12 -34,31 -42,39l-215 202c-114,98 -164,120 -293,219 -159,122 -276,195 -266,348 6,88 11,40 52,112 542,-413 900,-1083 1552,-1370 -122,351 -302,467 -551,678 -130,111 -194,153 -320,272l-260 333zm-4880 1534l491 -285 -491 285zm2114 -293c312,-58 584,-239 797,-280 630,-123 -63,57 369,73 222,9 1044,-551 1277,-699l103 -63c12,-8 118,-88 136,-108 151,-167 1,60 84,-164 -464,138 -972,800 -1603,845l827 -528c348,-201 405,-84 161,-260 -107,123 24,13 -126,125l-2025 1059zm2191 -1278c124,1 69,-136 -57,-4 -100,105 56,4 57,4zm-2687 1020c349,-19 546,-157 841,-286 18,-8 40,-18 58,-25l411 -186c18,-9 41,-18 59,-28l1396 -810c99,-82 172,-173 235,-242 -245,62 -1792,1122 -3000,1577zm-8631 1712c107,-391 253,-410 586,-582 -8,370 -287,509 -586,582zm822 355c116,-636 354,-1021 822,-1220l-149 329c-163,326 -374,733 -673,891zm11837 -5083c214,-142 247,-225 588,-263 -102,367 -241,407 -410,698 -109,-108 -83,-29 -156,-222 -49,-130 -10,-90 -22,-213zm-17769 -57c-54,101 -889,986 -1018,163 -31,-199 13,-1015 154,-1255 140,-238 74,-130 240,-242 252,158 328,337 473,592 161,283 264,426 151,742zm10499 -700c-655,58 -1949,-241 -1102,-1517 815,11 1120,997 1102,1517z"/>
   <path class="fil0" d="M64695 65027c-84,119 -541,1471 -1112,214 -159,-350 -226,-441 -124,-798 257,-894 -130,-816 350,-1191 265,-207 31,56 271,-270 -1004,-385 -1086,1298 -781,2064 814,2047 1498,149 1396,-19z"/>
   <path class="fil0" d="M55299 60397c-29,-12 -71,-60 -86,-38l-470 -305 -192 176c-69,840 86,1852 688,2132 0,-1 -878,-1483 -444,-1932 97,-52 -69,-107 235,-59 592,93 354,1479 1123,1731 -253,-416 -442,-544 -625,-1203 -134,-482 -56,-1237 -139,-1508 -174,246 -118,634 -90,1006z"/>
   <path class="fil0" d="M62818 70649c-138,-277 -1160,-1875 -1547,-1279 246,360 197,-76 829,570 955,978 1020,2019 785,3185 570,-420 183,-1974 -67,-2476z"/>
   <path class="fil0" d="M62503 72724c222,-596 -697,-2260 -1257,-2414 32,409 311,501 539,793 884,1132 303,964 -95,2792 212,-79 116,-12 206,-310l438 -1181c12,18 26,45 33,57l136 263z"/>
   <path class="fil0" d="M53505 81880c29,-803 -196,-2623 671,-3213 227,-155 221,-28 324,-273 -205,-112 -248,-97 -419,13 -551,352 -728,1815 -752,2430 -28,698 47,652 176,1043z"/>
   <path class="fil0" d="M48551 80386c-295,-824 -396,-1715 -353,-2671 27,-611 156,-367 265,-720l-191 -93c-423,471 -282,3211 279,3484z"/>
   <path class="fil0" d="M56392 69077c-117,-616 -426,-1050 -309,-2152 20,-189 106,-422 117,-614 -538,218 -368,2633 192,2766z"/>
   <path class="fil0" d="M52966 73081c2,1614 473,1915 724,2575 30,-394 -264,-515 -450,-1420 -310,-1513 32,-1283 37,-1711 -299,39 -311,214 -311,556z"/>
   <path class="fil0" d="M58564 69605c83,-622 347,-2378 -108,-2746 -123,252 100,794 105,1245 5,498 -61,1009 3,1501z"/>
   <path class="fil0" d="M45263 86117c-276,-596 -806,-800 -734,-1831l463 -43c-336,-83 -205,-352 -646,55 -197,403 443,1539 917,1819z"/>
   <path class="fil0" d="M46533 73373c-159,-378 -551,-765 -508,-1645 49,-1002 637,-1137 932,-1288 -565,-139 -981,642 -1049,1209 -113,929 316,1232 625,1724z"/>
   <path class="fil0" d="M49562 80320c-491,-891 -231,-967 -256,-1964 -255,164 -201,650 -196,1054 6,415 44,890 452,910z"/>
   <path class="fil0" d="M49066 62179c-250,-556 -384,-1061 -168,-1697 215,-74 272,-124 397,72 -123,-237 -118,-230 -371,-326 -614,455 -203,1683 142,1951z"/>
   <path class="fil0" d="M48789 71182c342,-759 -366,-960 -581,-716 168,240 214,150 470,314 -16,424 -155,479 -279,792 252,-96 272,-128 390,-390z"/>
   <path class="fil0" d="M45836 80112l-1263 -1179c-14,370 279,496 514,684 222,178 417,438 749,495z"/>
   <path class="fil0" d="M49626 83849c-440,57 -219,921 -7,1167l7 -1167z"/>
   <path class="fil0" d="M56987 63011c46,299 28,-881 21,-1041 -99,182 -123,220 -140,482 -1,23 0,333 2,341 38,211 10,114 117,218z"/>
  </g>
  <g id="_203689360">
   <path class="fil0" d="M15508 44538l118 91c79,89 12,-15 119,157l252 597c131,595 -12,313 -94,413 -192,-393 -340,-707 -395,-1258zm9138 15l-90 104c-263,251 -866,494 -1015,736 1126,-351 1990,-1305 2977,-1896 1216,-728 1233,-1838 2060,-2887 -86,-45 -95,79 -233,0 49,-98 70,-158 144,-271 221,-337 1,-125 312,-275 -97,320 -90,187 -208,461 342,-279 696,-1636 835,-2114 164,-564 1059,-2958 876,-3565 -135,-446 -90,-857 -101,-1405l-325 -2747c-351,-1558 -600,-3312 -1307,-4740 -589,-1189 -268,-1160 -794,-1468 -285,-168 -169,-168 -332,-441 -351,-587 -1309,-1082 -1492,-1616 638,142 1297,639 1548,1170 294,-459 -1013,-1034 -1296,-1365 -145,-170 -318,-271 -844,-478 -541,-213 -923,-467 -1473,-629 -293,-86 -471,-186 -750,-268 -280,-83 -586,-84 -866,-208 -6,-15 -11,-59 -11,-47l-1 -84c12,-129 75,0 12,-108 -468,348 -1098,40 -1755,315 -534,224 -1185,368 -1730,557 -1189,412 -2197,1079 -3575,1153 17,-385 -14,-524 139,-805 86,134 103,-35 94,606 10,-19 24,-70 27,-59 3,11 20,-47 23,-63l51 -433c24,-248 40,-495 67,-747 15,18 35,26 41,57l165 183 125 -1231c217,78 95,83 319,224 25,-457 -384,-727 79,-981 46,-308 35,-313 195,-529 174,192 241,451 486,583 -31,-316 -26,-76 -205,-435 -79,-158 -172,-350 -110,-614l818 -1004c199,-110 85,-13 93,-279l-165 0c72,-161 68,-29 61,-182 -9,-193 10,-41 -57,-146 239,-173 426,-443 488,-762 -31,47 -75,128 -113,186 -10,15 -22,38 -33,53l-184 205c24,-250 17,-299 147,-498 240,-367 156,-203 266,-39 -88,-726 841,-1603 1251,-2145 128,-169 101,-176 256,-334l1024 -1003c168,-198 967,-780 1241,-903l22 1069c89,-84 69,33 100,-149 105,-632 -255,-1123 554,-1371 0,273 9,388 40,645 14,117 10,222 22,314 43,349 -45,-143 21,144 4,17 19,45 22,58 4,12 18,35 28,52 252,-618 -417,-1272 537,-1666 223,-92 344,-72 521,-211l166 153c182,151 522,387 745,406l-432 -737c-283,-486 -1370,-2082 -1706,-2244 -360,337 160,201 -465,550 -1322,738 -3243,2505 -3913,3741 -492,909 -1116,1767 -1594,2707l-1095 2194c-43,158 -25,252 -122,394 -121,175 -13,33 -138,131 -1,1 -121,59 -200,126 -29,416 7,615 -122,963 -41,111 -94,234 -143,366l-253 419c-52,-825 -392,-2992 -712,-3488l300 1384c-252,-198 -164,-77 -336,-538 -346,-927 -790,-1688 -1210,-2583 -145,-309 -375,-801 -543,-1055 -370,-562 -877,-1322 -1381,-1737 -331,-273 -480,-431 -755,-763 -301,-362 -491,-466 -837,-767 -1549,-1344 -2173,-1449 -3998,-2237l-1643 -622c-249,-72 -422,-176 -610,-220 -173,-40 -220,4 -519,-91 -389,-124 -1465,-545 -1797,-395 31,305 101,207 201,470 224,588 256,1236 435,1841 115,387 211,878 334,1184 155,386 186,803 295,1224 113,432 286,626 398,1032 123,448 250,802 361,1169l915 2107c868,1538 2333,4071 3705,5232 426,360 805,738 1329,938l548 237c-320,211 -920,397 -1298,410 -278,9 -205,-65 -436,-123 -894,-228 -2387,1031 -3053,1437 -362,220 -2057,1883 -2282,2349 -662,1373 -2239,3497 -1386,5040 -214,-885 -285,-1161 -41,-2061 151,-557 439,-1302 834,-1594l-457 2727c66,-174 20,-73 113,-193 8,2458 161,3848 691,6238 377,1701 638,2760 1681,4127 184,242 320,472 478,706 464,683 865,1411 1392,2064 110,136 159,172 269,322 140,193 142,259 214,415 -969,-360 -1508,-868 -1560,-2019 -488,1301 1158,2015 2054,2487 529,278 632,511 977,716l-246 420c872,333 1701,317 2594,506 609,129 388,-59 830,-159 685,-154 1094,-142 1770,-348 591,-181 1015,-419 1624,-551 -107,569 -505,872 -542,1430 478,-248 368,-636 689,-1042 99,-125 44,-53 156,-145l-156 1253c114,-94 52,-28 126,-125l212 -304 -35 956c337,-190 285,-284 337,-759 15,20 38,24 43,61 5,37 31,48 37,64 6,16 20,47 27,67l150 346c266,-229 260,-440 324,-864 15,17 38,20 44,53 7,32 34,41 42,54l226 449c150,-247 72,-167 291,-312l422 489c340,-462 225,-451 155,-1069l574 180c127,-228 141,-224 139,-545 622,99 1249,185 2000,209 1495,49 4043,145 5425,-398l247 -106c18,-6 50,-14 75,-23zm-8709 -165l544 136 8 504c-309,-119 -138,23 -344,-239 -140,-177 -150,-216 -208,-401zm-13686 -8388l402 677c-59,-868 -1525,-3952 -1196,-7012 179,-1668 593,-3754 1743,-5004 404,-438 698,-215 1115,10l-437 -408c-11,-9 -30,-26 -42,-35l-159 -125c-9,-7 -35,-25 -43,-31 -7,-5 -30,-19 -44,-29l355 -214c428,-209 -433,-35 173,53 449,-601 1465,-1077 2235,-1320l436 -151c208,-85 324,-112 473,-23l-638 300c-909,593 -902,289 -918,772 -325,304 -652,569 -960,888 -91,94 -110,123 -206,218 -247,245 -487,434 -661,772 1134,-1067 2702,-3063 4713,-3099 1169,-22 844,-339 2001,264 -70,-249 114,-378 371,-399 746,-59 1793,630 2554,711 -162,109 -297,58 -480,153 273,177 732,166 1016,183 180,10 49,20 306,-93 -70,251 -88,185 -153,409 525,-38 169,-309 807,-340 387,-18 782,174 1079,25 -307,-123 -609,3 -906,-169 81,-209 -151,-288 676,-100 450,-446 845,-437 1479,-618 381,-108 473,-190 878,-219 345,-25 710,6 1043,-51l-357 -165c-20,-12 -51,-30 -75,-48l372 -133c478,-495 2187,-866 2799,-696l1462 441c345,103 1297,197 1341,661 43,449 -10,-58 -142,397 997,561 2971,4525 3463,5990 838,2492 760,5778 743,8794 7,1 13,-23 14,-17 35,210 30,-30 35,-33 212,-111 -110,-125 129,-34 49,868 -476,1707 -710,2446 9,2 26,-12 28,-3 42,179 15,-60 168,3 -79,375 -202,730 -348,1035 -87,-126 -74,-242 -17,-432 50,-170 120,-335 173,-523 -440,267 -425,579 -593,1170 -179,631 -558,604 -833,1026 407,-134 221,-208 610,-369 -195,1177 -1152,2025 -2086,2451l-1610 659c-306,81 -1720,236 -2063,250l0 -178c-577,28 -1132,105 -1691,85 -697,-25 -770,-353 -1361,-439 83,191 171,200 100,336 -1412,-94 -1415,-374 -2322,-709 -114,-42 -293,-92 -381,-139l-141 -100c-165,-106 -124,-22 -468,-22 -757,-2 -1508,-64 -2048,489 -288,295 -320,198 -743,365 -1292,511 -2350,140 -2760,367 -83,46 -77,406 -739,67 -12,-6 -883,-41 -1503,-354 -441,-223 -991,-563 -1160,-1003 464,89 802,290 1183,316l-1121 -485c-646,-273 -553,-314 -805,-911 -65,-11 20,677 -1017,-1077 -78,-131 -134,-318 -223,-442 -1316,-1834 -320,-481 -1136,-2077 -464,-906 -1065,-1870 -1179,-2954zm1940 4243c-184,-268 -127,-322 -389,-477 161,218 131,314 389,477zm17780 4379c1,1 80,185 -18,20l18 -20zm3386 -1609c342,-22 1414,-910 1558,-1139 -542,224 -1076,1000 -1558,1139zm-22009 -11181c-650,-932 -704,-2070 -671,-3455 31,-1266 659,-2195 1202,-3039 -639,593 -1165,1929 -1284,2985 -81,721 33,1381 123,1999 73,491 349,1269 630,1510zm2170 -8478c-40,31 165,-133 0,0zm-1628 563c-12,5 -158,333 -13,91 0,-1 231,-191 13,-91zm-1787 13374c382,390 436,593 678,1140 157,353 428,943 508,1252 -547,-392 -1055,-1687 -1186,-2392zm27189 -65c67,-432 226,-824 278,-1174 63,-418 72,-1007 339,-1317 19,564 -63,2268 -617,2491zm-27343 -1075c-175,-237 -132,-348 -222,-636 -99,-318 -110,-270 -125,-652 13,18 30,42 37,55 8,12 26,40 34,56l192 344c-204,-1266 -580,-1708 -507,-3237l378 1680c126,496 353,1109 297,1704l-143 -4c-2,-9 -20,0 -17,2l76 688zm27295 -5943c78,323 46,93 84,84l131 -56c121,1134 341,2161 267,3292 -51,768 -218,2711 -538,3203 -582,-688 314,-4706 -914,-8296 -679,-1987 -1696,-3616 -2729,-5359 -22,-36 -109,-181 -127,-206 -247,-334 -218,-122 -302,-498 234,120 170,92 370,353l1112 1418c1008,1361 1684,1799 2294,4051 278,1027 235,1532 352,2014zm-15064 -8077c179,69 89,42 329,1l27 534c-417,-70 -373,-93 -356,-535zm456 550c-73,-643 -317,-2082 222,-2688 21,886 64,907 -265,1556 343,-50 73,-56 407,-61 82,273 416,1032 -364,1193zm364 -2822c6,-388 -51,-237 -81,-587 -9,-6 -25,-16 -28,-18l-87 -50c-3,-13 -21,-11 -31,-16 50,-77 11,15 86,-159l166 -431 145 514c107,810 272,993 -167,1449 -13,-268 -8,-442 -3,-702zm-65 -756c-28,212 37,1 38,1 96,-29 -13,-186 -38,-1zm506 606c-12,-20 -24,-47 -30,-62 -217,-545 -250,-1368 76,-2267 161,144 43,-25 149,171 67,122 33,50 67,209 18,82 30,274 45,375 107,716 288,1192 -70,1707 -112,162 -47,127 -234,202 98,-327 253,-492 340,-852 -160,164 -68,81 -164,247l-179 270zm-1150 440c-318,-362 -563,-2334 -765,-2935 -87,-258 -174,-290 -187,-725 208,234 152,292 302,628 0,2 59,116 82,167 345,761 776,2045 568,2865zm2342 -2469c-13,-19 -26,-47 -32,-62l-79 -198c-4,-14 -37,-187 -42,-214 -25,-143 -42,-288 -68,-432 -178,-988 -487,-531 36,-1462 132,-233 220,-484 442,-623 120,290 195,799 229,1140 53,546 0,712 -210,1091 -81,389 57,21 70,150l-5 51c-183,417 51,-512 -341,559zm-609 1098c-65,-147 -450,-1768 -191,-2226 124,-217 25,-113 216,-244 213,231 191,184 269,583 350,1777 42,1144 -171,2088 -109,-130 -46,-29 -123,-201zm38 -158l107 -267 -107 267zm777 -4184c646,-494 154,-1115 1132,-1270 58,80 56,67 106,190 1,2 57,195 59,205 254,1311 -127,1364 -828,2511 -236,-324 -64,-981 -345,-1461 -12,-20 -73,-76 -81,-116 -6,-35 -29,-39 -43,-59zm-15547 -5594c-15,-20 -31,-47 -39,-63l-160 -392c-56,-194 -75,-263 -125,-461 -102,-407 -118,-643 -142,-1081 480,79 1693,1226 2062,1616 1307,1378 3815,5253 5246,7157l2285 3027c532,640 1109,1275 1615,1929 339,438 587,539 879,891 169,204 247,330 396,532l360 457c8,-15 32,43 44,67 -1230,-83 -1972,-722 -2232,-658 -171,42 200,-125 -109,65l-94 66c-548,-462 -1060,-133 -1714,-299 -1250,-317 -2724,-1581 -3467,-2529 -884,-1127 -2647,-3699 -3001,-5067 18,16 39,40 51,53 11,13 36,37 49,53l273 349c-175,-475 -499,-1000 -703,-1512 -211,-532 -375,-981 -576,-1533 -406,-1117 -700,-3186 -837,-3330l-61 663zm2177 5712c104,410 663,1001 902,1232 -37,-190 -287,-344 -463,-593 -197,-276 -280,-395 -439,-639zm8625 5616c-513,-619 -1031,-1231 -1560,-1811 -573,-628 -1428,-1929 -2192,-2870 -1019,-1255 -3835,-5882 -4964,-6838 -321,-271 -1553,-1336 -1689,-1616 617,51 1890,422 2369,676 329,173 1583,1049 1932,1108 -486,-577 -922,-536 -1247,-864 -110,-111 -32,35 -121,-163l871 332c752,309 1908,659 2194,1217 -1173,-10 -920,-502 -1697,-522 858,707 942,136 1303,1057 331,-163 -170,-302 402,-86 338,128 961,750 1085,819 584,323 949,834 1436,1240l-329 -433c-19,-16 -75,-59 -93,-75 -13,-12 -32,-29 -45,-41l-1321 -1267c-8,-39 -27,-46 -40,-69l344 154c168,82 12,-17 215,121 88,60 289,222 383,301 253,215 403,492 663,772 920,988 -15,339 553,823l163 227c127,155 39,46 165,173 859,861 1852,2175 2102,3439 -202,-155 -215,-256 -315,-522 -73,140 -44,-1 -43,184 0,166 -7,55 38,176l475 968c511,1170 672,3812 624,5105l-1661 -1715zm-1855 -8297l-23 -24c-8,8 22,23 23,24zm1506 2602c37,76 -236,-129 103,196 579,553 400,608 726,801 -36,-402 -612,-1080 -829,-997zm6060 -1529c473,-591 538,-1177 1990,-2562 1401,-1337 999,-839 1654,-1385l87 -82c14,-12 124,-116 133,-123 129,-100 216,-145 392,-210l313 -42c119,268 83,815 112,1197 41,530 100,514 -382,719 -272,-351 -52,-1172 -506,-1389 -32,57 -96,3 24,309 152,386 280,1027 178,1291l-755 792c-140,110 -37,32 -186,122l-20 -1735c-94,84 -383,1009 -421,1243 563,240 -248,-227 188,-84 -25,367 0,767 -102,1020 -175,-227 -90,-541 -88,-841 -171,388 58,800 -206,1132 -109,135 -468,378 -664,599 -237,267 -980,1228 -1238,1392 -93,-1140 6,-1001 -503,-1363zm4201 -2102c31,-272 -79,-151 146,-299 148,-97 174,-54 317,-82 -127,335 -71,228 -463,381zm593 -2231c279,77 170,1 371,267l584 946c-244,175 -588,254 -907,299l-48 -1512z"/>
   <path class="fil0" d="M8837 43478c-440,-202 -512,9 -1222,-776 -345,-380 -557,-706 -907,-1122 -585,-695 -827,-932 -1334,-1701 -724,-1099 -1134,-2234 -1576,-3491 -443,-1262 -172,-525 -456,-1581 -116,-434 -147,-1532 -257,-1742 -550,341 230,2846 408,3310 1017,2651 1109,3230 3118,5392 171,185 1857,2411 2226,1711z"/>
   <path class="fil0" d="M4054 34287c111,141 275,643 173,844 -95,-204 -194,-538 -173,-844zm0 0l-190 -233c-150,-166 -42,-95 -246,-206 38,448 169,808 257,1128 205,740 300,486 505,929 237,511 429,1739 687,2051 265,-272 -476,-2225 -681,-3089 -87,-364 -104,-312 -1,-502l685 2210c84,364 47,537 334,641 260,-467 -5,-1276 0,-1762 319,318 134,495 551,815 30,-376 -136,-76 -399,-1135 -83,-334 -190,-917 -450,-1057 -100,191 169,1739 159,2289l-237 -373c-34,-94 -66,-258 -106,-396 -144,-499 -538,-1922 -834,-2119 -141,257 35,346 -34,809z"/>
   <path class="fil0" d="M26015 40502c159,-81 134,-90 320,-541 120,-291 204,-465 305,-713 183,-453 370,-921 470,-1455 284,-1523 90,-391 218,-1736 233,-2442 488,-2366 67,-5391 -33,-242 -98,-538 -171,-754 -196,-580 -508,-1841 -848,-1984 -22,247 376,903 492,1265 533,1649 743,3365 543,5159 -99,889 -206,2537 -457,3342 -282,900 -525,2100 -939,2808z"/>
   <path class="fil0" d="M11483 15387c166,-214 127,193 33,51 -1,0 -9,-13 -10,-15 -2,-3 -32,-25 -23,-36zm-1837 -2778c368,363 481,20 1118,1148 200,356 736,1133 719,1630l-317 -281c-149,-192 -146,-198 -308,-359 -205,-204 -494,-578 -633,-430 -134,142 1331,919 1630,2425l-245 0c133,331 286,576 427,879 98,212 146,277 234,446 88,168 104,267 197,472 270,593 542,1297 826,1874 -45,-770 -1144,-2750 -1264,-3058 -126,-325 37,-283 -255,-1256 -250,-829 -15,-823 -761,-2190 -149,-273 -403,-724 -574,-940 -93,-117 -747,-751 -794,-360z"/>
   <path class="fil0" d="M24888 30735c-191,777 -768,1653 -1711,1536 -191,-348 -243,-977 -104,-1479 254,-924 723,-576 847,-950 268,-3 -117,-122 -214,-148 -383,352 -590,423 -802,1082 -239,746 -203,2692 1401,1235 257,-234 802,-893 583,-1276z"/>
   <path class="fil0" d="M22037 22055c184,414 1753,424 2766,3393 157,461 315,1107 489,1568 -51,-829 -347,-1705 -670,-2440l-368 -714c-309,-588 -1704,-2082 -2217,-1807z"/>
   <path class="fil0" d="M8952 22983c159,292 373,73 789,15 1102,-153 2049,465 2667,828 -41,-285 -121,-330 -603,-572 -751,-376 -1555,-660 -2417,-493 -322,62 -328,-4 -436,222z"/>
   <path class="fil0" d="M22098 42895c351,-247 544,-1179 931,-1696 212,-284 731,-1542 593,-1900 -96,178 -48,218 -162,386 -563,830 -200,419 -587,1349 -236,565 -602,1299 -775,1861z"/>
   <path class="fil0" d="M4233 28197c177,-401 325,-973 516,-1388 423,-922 1133,-2554 1786,-3286 184,-206 350,-278 517,-488l829 65c-1338,-1109 -2525,2298 -3024,3375 -182,395 -545,1222 -624,1722z"/>
   <path class="fil0" d="M2523 34014c-143,-607 -361,-910 -553,-1957 -132,-719 80,-2033 -19,-2315 -651,435 195,3899 572,4272z"/>
   <path class="fil0" d="M14028 27087c282,12 131,-220 109,-557 -19,-289 -18,-649 5,-938 62,-755 530,-917 371,-1332 -152,49 -151,-126 -334,487 -206,688 -384,1703 -151,2340z"/>
   <path class="fil0" d="M9851 42773l-1247 -1399c-258,-290 -999,-1360 -1175,-1488 -123,357 1763,2463 2422,2887z"/>
   <path class="fil0" d="M11931 39345c-140,-389 -46,-810 1,-1197l59 -999c-31,-290 -20,-139 -88,-245 -1,3 -603,2949 28,2441z"/>
   <path class="fil0" d="M9648 23573c87,326 163,192 603,289 554,122 1574,511 1803,989l-110 -313c-251,-267 -562,-438 -914,-590 -303,-132 -1105,-512 -1382,-375z"/>
   <path class="fil0" d="M10802 38584c10,-17 26,-63 30,-52l261 -1321c48,-324 261,-1252 131,-1451 -230,319 -215,947 -298,1338l-130 1143c-30,182 -88,154 6,343z"/>
   <path class="fil0" d="M15006 26912c6,-301 -74,-427 -85,-721 -32,-906 432,-2008 267,-2354 -140,185 -677,2633 -182,3075z"/>
   <path class="fil0" d="M10296 37032c192,-166 210,-758 361,-1361 124,-495 3,-417 -24,-465 -219,86 -123,-223 -295,873 -48,308 -170,739 -42,953z"/>
   <path class="fil0" d="M5962 16868c241,364 327,613 616,979 537,678 1854,1880 2577,2139 -1079,-855 -1658,-1052 -2548,-2267 -120,-164 -552,-778 -645,-851z"/>
   <path class="fil0" d="M16407 25802c-325,-1174 75,-1514 -207,-2053 -121,87 -141,-260 -77,410 20,213 9,463 3,679 -14,440 -68,889 281,964z"/>
   <path class="fil0" d="M17899 24475l283 -221 -145 -137c23,-476 278,-1330 106,-1622 -10,19 -374,1649 -244,1980z"/>
   <path class="fil0" d="M12788 40309c123,-221 173,-1050 38,-1346 -224,347 -196,949 -38,1346z"/>
   <path class="fil0" d="M21340 42548c170,-550 291,-716 532,-1231l504 -1018c40,-85 20,-3 57,-179 -144,116 -81,41 -193,206l-938 2072c-5,143 10,84 38,150z"/>
   <path class="fil0" d="M23827 35354c198,-133 608,-524 470,-859 -194,145 -418,588 -470,859z"/>
   <path class="fil0" d="M19492 23894c148,-308 254,-1083 189,-1528l-219 -111c286,701 80,689 30,1639z"/>
   <path class="fil0" d="M6501 35604c71,-208 -129,-611 -295,-699 102,392 115,598 295,699z"/>
  </g>
  <g id="_525688616">
   <path class="fil0" d="M91163 45049l276 115 -216 1144 293 -112 424 -1207 -65 1382c172,-41 226,-65 298,-197 165,-301 -77,-103 214,-471l135 613 712 -595c60,231 84,371 327,396 -21,-412 -210,-746 -206,-1383 340,29 100,-9 353,88 123,47 246,92 373,135 338,113 283,172 550,75l-1159 -394c12,6 -65,-119 211,-106 238,11 2236,734 2438,932 -608,0 -945,-296 -1483,-385 192,177 1012,517 1411,456 19,-3 42,-9 61,-14 17,-5 37,-18 55,-23 17,-6 36,-22 53,-28 18,-6 38,-22 56,-27l870 8c-177,167 35,65 -227,163 -216,82 -429,29 -650,141 14,8 36,6 43,24 67,165 875,-107 999,-146l328 -139c13,12 34,14 38,36l206 254c224,98 1342,-503 1512,-754 8,-13 18,-46 25,-58 6,-11 14,-40 21,-60 -487,212 -995,848 -1626,611 18,-18 42,-71 52,-54l228 -151c112,-51 236,-83 366,-136 673,-276 1142,-706 1547,-1355 -489,461 -563,718 -1211,1034 -1274,621 -2460,456 -3751,-9 -278,-101 -498,-200 -765,-333 -430,-212 -384,-231 -678,-489 -458,5 -529,110 -1072,-22 -1736,-424 -1217,504 -3545,440 -1655,-45 -2728,-1277 -3346,-2605 -440,-945 -548,-1015 -864,-2093 -292,-995 -284,-894 -332,-1842 -15,-295 -97,-364 -126,-669 -85,-910 -114,-1826 223,-2593 346,-789 361,-1537 1452,-1496 -143,-97 -48,-40 -225,-104 -373,-135 -99,102 -317,-201 -137,337 40,140 -283,281 77,-291 173,-398 354,-619 11,-13 27,-32 38,-45l48 207c-67,125 -31,66 -83,183 201,-129 182,-135 319,-360 433,-712 688,-1472 1257,-2120 210,-239 416,-624 657,-762l-113 2722c266,-729 273,-2933 436,-3822 232,-1261 339,-2620 311,-4009 -37,-1821 -269,-2055 134,-3992l706 -2590c138,-422 151,-509 645,-523 -64,670 -522,1721 -661,2498 -161,898 -298,1905 -182,2896 68,-1845 317,-4689 1601,-6090l726 -464c-114,-227 -53,-168 -350,-241 -353,388 -750,830 -981,1273 -19,-7 -186,-55 -223,-69 -22,-9 -102,-42 -122,-52l-98 -68c444,-993 566,-219 1160,-952 131,-161 347,-452 603,-232l202 220c-4,-28 -36,-165 -42,-185 -7,-19 -19,-55 -26,-76 -82,-249 2,127 -47,-108l-7 -71c1,-7 15,-28 18,-34 3,-8 26,-33 29,-40 5,-7 27,-25 38,-40 -216,-61 -91,35 -154,-165 -530,262 -366,116 -427,81 154,-104 226,-120 344,-242 269,224 -6,137 398,167 -22,17 -73,57 -76,66 -55,156 -65,-71 2,98 671,-200 1130,57 1772,134 423,51 378,37 552,318 -1,-291 -2,-38 122,-152 469,111 690,222 927,528l239 -233c211,224 330,327 526,661 124,212 311,682 348,938 10,-19 21,-70 25,-58l100 -234c5,-11 17,-38 28,-56 97,302 148,233 257,505 312,776 478,866 443,1894l-653 -1929c-69,-102 -73,-83 -125,-135 79,910 1093,3160 892,3941 -125,487 -174,231 -115,1044 29,392 156,1957 271,2237 80,193 92,214 126,463 14,96 23,218 39,310 28,172 7,41 67,309l-159 -152c-11,-15 -28,-37 -38,-54 -168,-265 -232,-732 -291,-1059 -99,1027 967,2415 1331,3413 122,333 227,281 483,516 312,289 944,691 729,1133 507,309 345,118 640,721l11 -139c41,-240 -76,-24 78,-218 59,250 247,473 400,699 411,606 697,1295 993,1966l292 1288c-10,-17 -20,-39 -30,-55l-250 -587c-140,-595 -756,-1968 -1051,-2406l-208 -291c-65,-90 -110,-162 -170,-248 74,304 197,386 339,684 135,285 203,484 339,750 154,301 178,403 296,727l915 2277c72,217 63,645 180,831 86,135 199,182 278,472 111,408 -110,-257 37,137l71 122c-30,-630 -167,-771 -198,-1281 -7,-3 -20,-7 -21,0 -1,7 -19,2 -21,2l-107 -2c227,-485 -176,-1193 -342,-1708 -53,-165 -127,-380 -189,-551l-242 -599c-8,-19 -16,-41 -25,-59 -898,-1969 -1205,-2280 -2671,-3899 -257,-284 -548,-591 -595,-965 294,131 1040,951 1304,1268 1274,1525 2274,2815 3040,4816 581,1519 792,2967 640,4559 -70,726 -279,1442 -397,2195 -62,396 -464,1888 -810,1992 -378,113 10,238 -596,1008 -225,285 -80,351 -300,704l-520 548c125,-295 332,-579 613,-796 -45,-56 -95,-160 -122,-34 -8,38 -57,88 -71,102 -106,106 -60,51 -146,105 67,-340 165,-425 366,-639 9,-10 114,-134 116,-136 85,-107 110,-143 180,-251l-311 276 291 -709c122,-230 207,-444 325,-685 229,-462 439,-978 632,-1474 380,-978 551,-2066 501,-3132 -1,-14 -16,-213 -18,-220 -62,-189 -21,-75 -168,-220 94,1039 85,2136 -231,2979 -78,-136 -73,192 -76,-246 -4,-578 236,-1300 149,-2553 -143,244 -166,1742 -233,2540 -98,1166 -844,3147 -1500,4073 -210,296 -763,702 -1063,962 -78,68 -111,86 -188,150l-213 214c335,-112 601,-483 884,-721l409 -244c-105,239 -153,385 -423,648 -342,333 -1470,1240 -1589,1541 252,-231 465,-384 730,-629 133,-123 210,-202 343,-332 228,-224 312,-202 542,-290 -12,23 -28,32 -35,71 -47,271 -382,379 -482,598 265,-95 545,-419 727,-637l616 -717c11,-16 22,-38 33,-55 395,-639 796,-1213 1118,-1925 491,-1086 1133,-3389 1222,-4729 188,-2814 -1248,-5460 -2787,-7552 -207,-282 -375,-631 -654,-857 136,-220 5,-24 129,-181 135,-171 20,30 144,-183 -360,-361 -859,-200 -1301,-1065 -203,-399 73,-365 -296,-531 -12,16 -25,24 -28,53l-111 324c-6,16 -18,45 -30,65 -642,-363 -618,-519 -774,-1379l-522 -3697c-79,-629 1,-1389 -105,-2004 -81,-476 15,-1593 -135,-1972 -296,-750 -1084,-2053 -1654,-2543l-1116 -960c180,-58 3,188 190,-97 152,-233 -24,-160 260,-428 700,-661 1493,-1092 2161,-1796l-1018 687c98,-262 266,-387 497,-542l101 -64c296,-220 437,-455 867,-604 -130,252 -216,304 -447,434l405 -261 433 97c-148,-106 -98,-63 -164,-248 436,-578 895,-783 1533,-1101 1690,-841 4198,-1576 4839,-1907 773,-400 809,-112 936,-226 80,-72 245,61 5,-537 -224,-559 -619,-936 -979,-1397 -169,80 -897,202 -1424,460 -2201,1078 -1694,389 -3980,2087 -989,735 -4038,3831 -4217,3915 54,-426 189,-462 284,-835 82,-317 83,-614 105,-961 88,-1448 446,-2140 353,-4055 -77,-1600 -1187,-3718 -1700,-5042 -317,-819 -906,-1283 -1298,-1975 -113,-200 -47,-191 -196,-392l-325 -221c-78,163 -64,221 -153,394 -74,143 -134,242 -254,340 -970,795 -784,1411 -1343,2108 -199,248 -36,62 -201,180 72,-406 337,-1137 478,-1488 97,-240 198,-431 313,-622 173,-289 278,-342 455,-558 230,11 311,40 450,118l-22 -326c-602,1 -1076,808 -1273,1373 -130,371 -228,656 -343,1000 -68,204 -92,341 -180,504 -153,282 -176,112 -310,448 -134,334 -166,711 -283,1068l-944 3009c-51,134 -52,111 -104,182 -61,-664 32,-861 69,-1422 -410,869 -95,1634 -57,2588 81,2031 269,4696 1373,6385 186,283 482,671 621,955 -711,831 -661,565 -1266,1657 -375,675 -641,1347 -817,2204 -228,1105 133,1463 -26,2433 -57,351 -216,1057 -225,1294 -20,514 -24,936 -136,1398 -20,-20 -52,-75 -62,-59l-391 -636c-127,222 288,954 300,1914 14,1196 -232,3011 -832,3944 -447,694 -832,1572 -1409,2135 -258,252 -255,377 -383,788 -223,717 -2042,5032 -1265,5409 -180,-788 71,-1491 260,-2255 66,-270 113,-492 304,-686 -39,1527 -338,1911 185,4061 147,607 338,1182 492,1783 141,550 300,1230 744,1602 -77,-231 -139,-278 -244,-531 -109,-260 -146,-434 -209,-608 22,15 56,8 66,44l339 387c142,198 243,296 379,449 -443,-1322 -1171,-1135 -1138,-3159l243 539c365,1486 1345,2682 1569,3156l-352 -261c-11,-13 -25,-33 -36,-46l-200 -215c-12,13 -43,9 -45,30 -8,124 728,687 939,835 2135,1496 2105,893 4170,804 -138,596 -417,405 -1458,513 -957,99 -2459,-22 -3156,-695 -12,-12 -27,-32 -39,-44l-172 -177c-91,-110 -33,-35 -107,-159 -25,-44 -30,-73 -81,-161 -169,-287 -181,-454 -305,-690 -99,239 -37,425 112,644 425,624 874,975 1683,1182 797,203 411,278 1579,251 617,-14 1268,-163 1784,-157 -120,567 -271,567 -216,1311 395,-100 723,-883 877,-1304 -162,155 -345,579 -526,717 62,-170 58,-266 165,-481l262 -347zm-3342 -16097c-34,410 -242,556 -441,862l-549 665c-14,12 -41,31 -61,46l193 -451c63,-160 110,-300 213,-466 173,-284 354,-539 645,-656zm-890 408c28,-298 271,-1582 346,-1757l248 410c116,411 -207,1129 -594,1347zm624 -4445c21,322 229,2496 169,2777 -125,581 8,110 -205,317 -83,-471 -299,-2581 36,-3094zm662 -1347c29,815 38,1550 22,2367 -7,375 -7,769 -57,1128 -66,470 -37,842 -228,1098 -62,-851 175,-1425 65,-2374 -98,-847 -36,-949 26,-1710 9,-110 6,-207 39,-310 109,-336 33,-85 133,-199zm-316 1047l-170 -1620c50,-480 80,-411 193,-549 226,622 6,1452 -23,2169zm411 -5173c267,-407 402,-1256 771,-1598 -30,616 -820,2413 -942,4298 -14,-18 -32,-69 -37,-57 -4,12 -27,-44 -33,-58 -191,-497 9,-760 -17,-1408 -160,289 -59,651 -252,942 -90,-1182 561,-3285 1265,-4230 129,-175 255,-343 352,-501l66 69c-46,181 -1138,1513 -1173,2543zm0 0l-58 112c-5,14 -17,45 -22,63 -6,18 -12,46 -18,67l13 445c41,-191 92,-431 85,-687zm936 -5907c322,947 1011,1743 1092,2278l-258 165c-171,-119 -120,-72 -253,-256 -1020,-1402 -1559,-3437 -1633,-5185 198,254 641,2350 759,2779 -12,-63 -62,-86 29,-197 63,-78 -10,-387 264,416zm5768 -48c310,-1089 830,-1214 1283,-1581 119,-97 1433,-1702 2732,-2497 132,-80 244,-113 329,-168 477,-309 -487,-52 1706,-928 1422,-568 1766,-1051 2804,-956 746,960 325,455 800,1189l-240 196c-186,91 -124,45 -343,90 -1505,311 -1987,811 -2272,932l-1643 567c15,-14 35,-34 52,-49l263 -181c723,-443 1296,-603 1311,-612 -419,-180 -2746,1363 -3345,1713 -837,489 -2246,1636 -2906,2234 -683,619 -1172,1445 -1865,1572 146,-775 847,-1202 1186,-1835l148 314zm-6353 -2105c-254,-333 -587,-2134 -614,-2484 -72,-916 204,-1885 418,-2644 83,110 148,-81 81,557 -142,1368 121,3059 115,4571zm573 -6274c-136,242 -325,1045 -300,1359l300 -1359zm2228 -4105c3,-31 0,-208 4,-217l157 -177c432,1105 -598,8647 -278,9438 102,-134 52,-673 63,-1315 20,-1178 139,-1105 167,-1315 6,-38 21,-47 36,-68 20,750 -49,1464 18,2222l796 5321c-48,516 -468,65 -1090,246 -418,122 -492,334 -850,422 -354,-529 -591,-1235 -893,-1883 -326,-701 -376,-1370 -608,-2178 -223,-775 -120,-1740 -212,-2576 -170,-1540 95,-1614 127,-2465l-183 354c2,-338 239,-1740 388,-1936 251,-330 81,-74 186,231l33 -144c7,-21 12,-47 20,-70l175 -335c-9,162 -25,209 -41,346 -3,28 -6,47 -9,75 -3,27 -6,45 -9,72 -131,1263 -136,3337 6,4468 -162,-656 8,-3858 143,-4808 76,-543 -65,-19 -87,-445 -10,-168 114,-383 139,-677 -211,325 -27,389 -444,629 50,-124 121,-470 244,-676 180,-298 208,-16 276,-42 217,-632 346,-1027 696,-1499 858,-1159 453,-1052 1030,-998zm-1807 3346c17,-77 120,-25 135,-321l-135 321zm3028 10635c-249,-560 -917,-5715 -919,-6589 -7,-2485 74,-4806 172,-7259 300,82 28,-67 270,157l698 1091c112,321 57,252 -34,526 597,429 359,345 765,1434l628 1565c324,955 -1449,2387 -1025,2940 152,-180 166,-327 263,-564 87,-211 180,-384 289,-566 218,-365 483,-758 666,-1104 15,18 30,43 38,57 8,13 27,40 36,57 603,1161 -1177,1940 -1158,3089 366,-265 820,-1616 1365,-1959 91,2253 -1085,1942 -1366,3807 419,-475 701,-1594 1275,-2098 43,734 -333,2123 -468,2912 -205,1198 -665,1642 -861,2540l-634 -36z"/>
   <path class="fil0" d="M100118 41421c509,-456 671,-5489 518,-6582 -88,-631 -316,-1492 -595,-2089l-1001 -1693c-189,-257 -585,-872 -862,-940 -104,279 850,1208 1355,2055 2124,3564 347,8617 585,9249z"/>
   <path class="fil0" d="M95538 6527c22,-1081 -147,-2061 -536,-2899 -221,-475 -422,-755 -624,-1145 -148,-286 -162,-293 -241,-594 -87,-335 -117,-349 -556,-283 3,234 297,502 600,1007 478,797 913,1467 1121,2428 105,481 75,1090 236,1486z"/>
   <path class="fil0" d="M86371 37462c864,22 1135,-819 1549,-1110 -368,41 -519,898 -1493,828 -313,-805 -231,-1840 315,-2305l-214 -301c-454,543 -767,2276 -157,2888z"/>
   <path class="fil0" d="M95182 26983c474,-313 417,-3620 125,-4174 -126,-239 -39,-79 -165,-172 -7,12 -171,-21 -15,454 511,1554 57,3044 55,3892z"/>
   <path class="fil0" d="M99084 41649c104,-655 359,-3673 58,-4303 -82,732 23,1432 5,2168 -17,689 -169,1455 -63,2135z"/>
   <path class="fil0" d="M92976 7869c356,-43 204,-165 582,-889 224,-431 407,-551 408,-1190 -418,165 -382,709 -503,1001 -163,394 -411,687 -487,1078z"/>
   <path class="fil0" d="M90250 41599c84,-116 94,193 65,-207 -21,-290 -114,-212 -87,-1121 8,-254 65,-498 67,-683 4,-333 -90,-388 -213,-505 -141,284 -73,84 -12,536 77,566 -105,1619 180,1980z"/>
   <path class="fil0" d="M90925 42078c23,-48 -33,-2188 -84,-2302 -150,374 -154,2078 84,2302z"/>
   <path class="fil0" d="M90082 21670c68,-158 18,-1068 718,-2529 -359,208 -942,1953 -718,2529z"/>
   <path class="fil0" d="M91744 42449c-43,-311 -160,-180 -176,-654 -10,-309 38,-610 29,-929 -166,294 -206,995 -119,1306 75,271 45,226 266,277z"/>
   <path class="fil0" d="M94720 26998c138,-394 -95,-1519 -253,-1816l253 1816z"/>
   <path class="fil0" d="M92528 42940c96,-168 -3,-645 -54,-864 -169,280 -124,579 54,864z"/>
   <path class="fil0" d="M88311 35943c60,-92 115,-220 153,-329 109,-313 136,-209 -69,-265 -109,197 -158,451 -84,594z"/>
  </g>
  <g id="_525690224">
   <path class="fil0" d="M86181 83412c88,-179 -167,-287 643,-195l1267 99c299,26 269,97 513,151 872,193 1662,-23 2444,-135 805,-115 1917,-13 2606,-188 533,-134 1669,-655 2107,-525 46,-74 50,-8 -110,-141 270,39 240,90 466,-52 168,-107 217,-149 430,-255 2495,-1246 3120,-2235 3542,-2459 502,-267 1428,-1163 1715,-1558 339,-467 585,-642 1010,-1012 315,-275 302,-161 369,-159 77,2 -14,95 108,-34l491 -529c141,-132 462,-503 565,-688 714,-1281 856,-2147 1204,-3431l180 -471c17,271 -25,517 66,661 59,-175 145,-3259 628,-3800l47 1288c221,-362 30,-2149 58,-2760 152,-3333 -288,-1814 -351,-3714 -18,-529 -123,-637 -179,-1149 -104,-948 -234,-1509 -643,-2137 247,-815 1254,-1923 619,-2880 -609,-918 -1746,-429 -2820,-88 -2045,651 -1731,-1018 -6714,132 -758,174 -413,-15 -1014,-188 -872,-250 -2296,329 -2787,827 486,-162 747,-434 1331,-609 538,-162 1173,-133 1728,5 -105,129 14,55 -147,152l-129 51c-11,4 -328,70 -347,74 -1107,263 -2933,1173 -4068,1611l410 -398c175,-121 228,-170 394,-282 293,-199 595,-360 828,-604 -485,165 -2669,1858 -3145,2255 -178,148 -2689,2414 -2697,2578 67,-82 53,-118 226,26 -138,73 -52,-12 -183,140l-378 545c-601,918 -1687,2224 -2159,2906 -1580,2279 -2947,9965 -2460,11053l-7 -951c81,118 46,-140 105,256 13,91 -5,244 -9,341 139,49 -63,60 85,-6 8,-3 53,-55 71,-77 1,171 35,133 -30,268 -3,7 -22,23 -26,28l-98 40c-4,126 -42,392 -44,459 -8,417 18,83 75,265 102,329 -61,438 -178,626 104,542 332,1398 259,2032 -45,382 -576,1155 -746,1464 418,234 -232,-232 99,62l130 153c220,646 -815,2540 2618,1526 549,-162 785,-150 1441,-140l-197 545c455,-251 103,-487 824,-611 264,-45 884,-112 1084,-224 -179,-119 -280,-85 -564,-73 -384,16 -349,38 -556,-96zm-3999 -3532c259,274 258,509 88,918 -113,-156 -54,5 -111,-253 -50,-231 -79,-479 23,-665zm253 -77c-279,-289 -206,-709 -197,-1282 8,-474 -42,-974 66,-1390 272,287 161,614 154,1305 -4,458 -21,902 -23,1367zm957 -10699c66,-246 201,-659 306,-953 116,-323 265,-621 422,-926l516 -769c-92,328 -348,978 -568,1274 97,527 44,-246 101,193 23,176 -251,764 -317,957 -346,1012 -233,1111 -672,1233l212 -1009zm1656 -2976c108,-473 570,-1154 871,-1500 205,-234 360,-229 555,-449 496,-563 1210,-1764 2315,-2503 527,-353 429,-116 932,-155 -108,-175 132,184 -86,-90 -9,-11 -28,-33 -38,-46 -12,-16 -30,-41 -42,-57l351 -252c-229,-150 -65,-12 -227,-74 -21,-8 -45,-16 -67,-26l-216 -114c1178,-499 2978,-2263 4282,-2180 244,313 242,402 371,845 28,-613 -157,-730 -322,-1092 465,-203 1218,-467 1801,-506l-525 268c510,-71 698,-271 1106,-277l2477 -205c676,-79 1301,-114 1982,-111 1053,4 998,46 1771,378 287,-314 506,-394 1000,-305 120,22 853,253 1004,317 -86,-244 -508,-308 -767,-365 126,-125 -30,-26 230,-169 321,-176 653,-233 1065,-245 1342,-39 974,1328 630,2025 -538,1088 -636,466 -767,843l495 1127c331,535 254,770 223,1539 -39,1009 -194,2101 -247,3199 300,-773 131,-3229 416,-3786 173,397 102,450 48,877 -42,334 88,480 122,824 74,744 -162,1028 96,1835 210,658 52,3064 -95,3864l-815 3321c-308,1221 -741,2006 -1364,2860 -558,764 -1330,1413 -1968,2167 -57,66 -190,228 -240,274 -300,278 -422,87 -846,496 -605,584 -1066,810 -1706,1411l-1770 1361c-559,320 -2699,1201 -3145,395 -60,152 -74,101 37,238l200 226c147,251 -844,293 -1047,345 -511,131 -2382,509 -2822,422 -322,-63 -315,40 -582,-232 559,-252 1565,-1045 1935,-1162 -719,72 -1755,1369 -2676,1178 -401,-83 -725,-193 -948,-516 318,-106 491,-252 715,-445 -199,79 -1156,604 -1224,742 213,103 207,31 390,93 99,33 265,95 227,221 -56,187 -185,158 -439,135 -136,-12 -376,-43 -546,-59 -403,-37 -646,-201 -986,-181 -163,331 -77,372 -364,666l-1371 -8c41,-288 158,-411 35,-671 -68,213 -151,638 -350,789 -471,204 -1581,455 -2077,251 -598,-823 252,-2149 301,-2933 307,136 143,175 314,105 -235,-582 -136,-265 -79,-930 33,-377 -19,-886 -8,-1298l243 339c-234,-1418 174,-4539 -22,-5261 -21,681 -13,1840 -234,2446l-46 122c-72,203 -80,346 -216,484 31,-893 45,-1708 106,-2568 15,-212 78,-973 140,-1154 175,-515 129,22 154,-398 20,-323 5,-270 61,-599 217,270 153,713 311,1022 117,228 4,109 160,160 -255,-356 -277,-1102 -231,-1646 46,-534 322,-1114 479,-1563 347,298 128,843 322,1210l200 -1077c-190,-74 212,83 -95,-19l-164 -66c-21,-446 -19,-631 116,-1020l256 -462c1,-1 73,-6 126,-36 -36,-743 401,-1352 666,-1907 459,-961 464,-818 1305,-1298 -130,-95 -126,-128 -486,6l-90 -274c-92,214 -396,741 -586,864zm1265 -1776c-154,107 -529,713 -589,926 179,-144 178,-201 319,-433 106,-175 192,-287 270,-493zm2532 17510c16,-8 202,-163 50,-84 -23,13 -322,222 -50,84zm16234 -15078l140 -835 -140 835zm-10891 -8193l823 -378c-367,66 -533,183 -823,378z"/>
   <path class="fil0" d="M96562 79955c1025,354 4382,-2886 5056,-3668 390,-453 1307,-1389 890,-1760 -396,449 46,1376 -4123,4430 -1121,821 -1702,902 -1823,998z"/>
   <path class="fil0" d="M84872 75723c8,-1270 -66,-1079 191,-2314 80,-385 139,-635 268,-1004 119,-341 283,-516 370,-878 -456,472 -551,1307 -686,1630 -95,229 -58,133 -146,244 -21,-780 397,-2247 670,-2897 241,-574 668,-1510 1146,-1911 247,-207 140,6 187,-239 -1012,441 -2229,3975 -2063,5180 124,896 -190,1668 63,2189z"/>
   <path class="fil0" d="M91586 65583c421,292 807,15 1255,-199 105,-50 1430,-765 1020,-639 -75,-167 -103,58 -850,407 -233,109 -885,503 -1148,219 -238,-259 242,-836 433,-1026 312,-309 803,-291 811,-711 -340,64 -788,492 -990,700 -286,296 -599,622 -531,1249z"/>
   <path class="fil0" d="M95185 79774c608,-280 1079,-659 1575,-1013 1751,-1249 2303,-1858 3637,-2858 304,-227 524,-301 601,-767 -411,131 -344,312 -672,612 -227,208 -468,427 -727,627 -544,422 -899,741 -1422,1192l-2187 1696c-240,163 -605,351 -805,511z"/>
   <path class="fil0" d="M103394 73328c163,-57 59,113 269,-640 376,-1344 1121,-5372 -230,-5885 163,608 887,701 638,3215 -78,783 -443,2742 -677,3310z"/>
   <path class="fil0" d="M104596 70340c-19,-21 139,-354 157,-588 25,-314 28,-697 28,-1015 0,-1437 252,-4972 -747,-5294 62,278 216,289 350,561 487,986 331,6059 212,6336z"/>
   <path class="fil0" d="M99723 59543c43,-315 6,-177 360,-442 -147,207 -1096,776 -1379,949 -286,176 -520,295 -779,483 -250,180 -491,379 -683,480 196,-56 920,-580 1194,-743 273,-162 333,-242 600,-411 567,-359 331,-311 687,-316 -51,475 -1050,955 -1658,1667 287,-76 1087,-901 1338,-1144 299,-289 1139,-957 1280,-1231 -195,65 -232,189 -389,351 -229,235 -249,344 -571,357z"/>
   <path class="fil0" d="M89422 64808c140,-211 117,-388 232,-647 423,-953 966,-1121 1022,-1462 -724,505 -1217,1130 -1254,2109z"/>
   <path class="fil0" d="M92873 80058c220,-11 2768,-1429 3152,-1867 -545,243 -1104,630 -1610,933 -364,217 -1272,941 -1542,934z"/>
   <path class="fil0" d="M91712 75377c155,-209 114,-715 152,-987 43,-308 212,-685 101,-920 -234,582 -246,998 -323,1507 -47,312 -169,265 70,400z"/>
   <path class="fil0" d="M90700 75787c229,-190 76,-338 240,-899 97,-335 208,-659 178,-1076 -148,160 -535,1750 -418,1975z"/>
   <path class="fil0" d="M98717 61240c368,-55 287,-321 1042,-908 353,-274 725,-563 1033,-845 -316,127 -1221,922 -1614,1201 -267,189 -394,274 -461,552z"/>
   <path class="fil0" d="M101276 75223c273,-148 563,-1180 547,-1509 -21,-400 3,-116 -74,-236 -134,214 -107,577 -191,880 -86,306 -198,560 -282,865z"/>
   <path class="fil0" d="M82439 83333c-88,-761 -32,-572 89,-1171 26,-130 17,-31 20,-175l-29 -91c-145,128 -607,1209 -80,1437z"/>
   <path class="fil0" d="M93652 75107c177,-166 146,-505 223,-829 76,-319 166,-588 -54,-761 -57,214 -212,1498 -169,1590z"/>
   <path class="fil0" d="M84091 77229c-8,-577 -140,96 -96,-770l-42 -216c-280,230 -391,980 138,986z"/>
   <path class="fil0" d="M101158 68161c352,-199 40,-37 234,-454 99,-211 207,-205 215,-431 -322,-4 -511,446 -527,547 -52,333 25,252 78,338z"/>
   <path class="fil0" d="M102339 61128c69,-222 28,-333 133,-592 87,-215 200,-256 120,-466 -277,110 -435,595 -412,827 36,364 27,173 159,231z"/>
   <path class="fil0" d="M91756 60940c275,-9 247,-105 446,-317 161,-172 265,-194 159,-447 -193,81 -607,436 -605,764z"/>
   <path class="fil0" d="M99134 64644c152,-246 -14,-128 351,-610 166,-219 356,-394 482,-604 -386,100 -1075,944 -833,1214z"/>
   <path class="fil0" d="M83278 83333c69,-103 47,11 76,-178 10,-62 0,-88 2,-159l84 -916c-110,174 -197,393 -257,638 -92,372 -104,439 95,615z"/>
   <path class="fil0" d="M98388 75066c136,21 545,-573 633,-815 -279,18 -493,358 -629,588 -226,384 -72,129 -4,227z"/>
   <path class="fil0" d="M92387 75287c108,-138 295,-1095 170,-1307 -63,221 -105,461 -181,721 -116,397 -257,385 11,586z"/>
   <path class="fil0" d="M91744 61804c225,-12 743,-444 928,-619 -191,-119 -290,3 -513,160 -257,180 -293,153 -415,459z"/>
   <path class="fil0" d="M103098 69559c13,-31 37,-942 -91,-1132 -214,147 -181,138 -110,534 38,215 91,457 201,598z"/>
   <path class="fil0" d="M101428 70842c146,54 530,-347 516,-611 -208,12 -473,317 -514,385 -194,325 -28,184 -2,226z"/>
   <path class="fil0" d="M86314 74782c16,-30 270,-635 -52,-783 -215,554 -196,699 52,783z"/>
   <path class="fil0" d="M85114 67906c125,-96 651,-888 660,-1062 -269,354 -609,331 -660,1062z"/>
   <path class="fil0" d="M100315 69834c267,-98 292,-188 286,-535 -408,1 -421,182 -286,535z"/>
   <path class="fil0" d="M102339 64311c61,-67 140,-212 201,-337 96,-193 75,-24 104,-233 62,-450 7,-123 -52,-246 -143,138 -360,523 -253,816z"/>
   <path class="fil0" d="M85881 72517c65,-576 290,-753 398,-1210 -144,308 -665,627 -398,1210z"/>
   <path class="fil0" d="M103267 65016l207 -814c-223,56 -252,21 -282,317 -23,229 5,359 75,497z"/>
   <path class="fil0" d="M86061 78518c51,-105 216,-594 245,-733 -118,73 -325,167 -330,489 -6,409 24,151 85,244z"/>
   <path class="fil0" d="M96534 59353c329,-91 554,-153 721,-379 -183,16 -266,40 -445,113 -266,108 -213,49 -276,266z"/>
   <path class="fil0" d="M104803 62219c61,-100 99,-179 115,-351 45,-454 19,-225 -133,-281 -139,259 -78,434 18,632z"/>
   <path class="fil0" d="M104134 73166l513 -591c-359,31 -510,215 -513,591z"/>
   <path class="fil0" d="M99449 71880c110,-95 67,18 173,-205 35,-73 63,-227 79,-310 -307,59 -205,82 -252,515z"/>
   <path class="fil0" d="M99330 62382c319,-573 919,-761 1281,-1271 -355,425 -984,628 -1281,1271z"/>
  </g>
  <g id="_525698168">
   <path class="fil0" d="M4675 85164l-2068 15c91,-108 18,-81 166,-153 269,-132 1413,-371 1902,138zm15742 -7426c-119,203 -146,593 -214,855 -208,805 -1271,3265 -1795,3699 -278,230 -945,764 -1258,938 -1542,864 -4609,1920 -6414,2304 1522,-38 6033,-1888 7356,-2723 512,-324 1066,-602 1511,-1014 216,-201 326,-333 568,-359 -5,391 -454,730 -725,1041 -246,282 -593,733 -837,932 336,-58 2696,-2732 3150,-4172l187 -568c151,-291 48,-99 180,-227 -18,870 -491,1531 -683,2213 842,-1062 766,-2721 1022,-3495 321,-967 1035,-2549 1242,-3318l-213 556c-129,-175 -186,-125 0,-434 149,-248 150,-174 213,-478 82,145 33,-14 50,162 1,15 -9,148 -3,176l151 -353c-114,-14 -10,12 -123,-55 497,-904 1308,-1645 1229,-2829l-228 345 -153 -1235c417,220 457,708 733,1082 26,-396 -196,-663 -360,-938 -156,-262 -320,-684 -455,-880 130,-388 45,1 159,-352 -226,-718 -1313,-2117 -1815,-2465 82,-482 383,-771 681,-1096l472 -487c127,-164 176,-222 335,-345 322,-251 215,-449 609,-738 280,-205 198,-27 444,-311 -25,-13 -64,-43 -80,-44l-253 37 229 -359c-406,164 -669,559 -956,835 -68,66 -83,66 -167,159l-269 437c-179,418 -686,761 -995,1083 -218,227 -158,255 -537,295 77,-453 463,-837 782,-1147 332,-324 733,-553 998,-939 777,-1133 1823,-2012 3132,-2529 713,-282 3346,-939 3956,-300 163,171 65,152 132,387 55,194 6,44 71,188 10,22 24,44 34,63l-152 63c-63,-19 -141,-37 -209,-56 -149,-42 -231,-75 -374,-90 -287,-30 -702,-29 -997,-26 -593,6 -1342,25 -1939,87 -567,59 -2325,1159 -2531,1478 505,-199 924,-654 1404,-812l746 -329c349,-172 1051,-69 1412,-194 234,-82 -102,-6 168,-72 682,-167 1654,-24 2259,215 487,192 379,131 525,581 211,-93 3,-26 280,-98 -8,-556 -84,-683 -298,-1062l240 -165c-372,-190 -441,-202 -579,-664 -368,149 -12,235 -596,103 -289,-65 -475,-111 -840,-99 -532,16 -1059,223 -1533,316 -1257,244 -1748,375 -2581,1028 -685,537 -1365,1115 -1889,1741 -2259,2697 -1579,1982 -2879,1190 -312,-189 -611,-546 -985,-646 36,623 762,671 861,714 349,152 758,537 940,868l-188 252c-368,-126 -1242,-1028 -1523,-1352 -187,-217 -560,-432 -795,-638 -285,-250 -446,-489 -715,-706 -50,143 -12,54 -40,170 -4,17 -16,79 -21,95l-35 83c-368,-113 -733,-178 -1208,-168 393,-314 987,-303 1476,-265 -262,-450 -944,-204 -1395,-23 -351,141 -1000,499 -1319,531 -977,97 -716,238 -1382,477 -585,210 -1019,155 -1227,704 -285,25 -852,43 -1006,250 15,7 37,5 43,21 44,121 1224,-170 1299,-187 -372,682 -1022,290 -1476,704 459,305 218,146 386,495 8,15 24,39 33,54l96 131c-789,87 -1801,564 -2589,823l-1565 535c-1623,744 -4526,3958 -5369,5574 -455,874 -735,2011 -1060,2988 -212,636 -38,673 -512,922 -271,1417 -244,1349 -883,2663 -186,382 -1073,2237 -981,2461 404,-827 585,-1504 1104,-2410l278 -382c-166,582 -406,957 -605,1554 -373,1123 -843,2226 -395,3421 199,530 726,660 1143,1043l-517 261c-189,110 -337,246 -446,277 440,-87 860,-556 1413,-409l5259 790c-274,-116 -1039,-263 -1413,-312 -546,-71 -960,-223 -1609,-274 233,-175 812,-165 1042,-309l-405 -145c-18,-15 -35,-35 -51,-51 -18,-17 -39,-45 -53,-60 -16,-16 -37,-43 -56,-65 875,31 1327,293 2140,361l2243 221c-7,-1 -42,19 -121,-31 -182,-116 -119,-90 -216,-192 1139,-90 2250,-407 3360,-638 253,-53 893,-213 1018,-220 -951,47 -3087,560 -4007,735 -770,145 -1461,44 -2274,-34 -514,-49 -1496,-245 -1659,-730l45 465c-1230,-39 -1543,-266 -2687,120 -864,291 -1528,-485 -1772,-1025 159,-255 341,-847 730,-1537 282,-500 645,-880 916,-1368 -65,161 -643,851 -816,1114l-587 931c-181,310 -58,211 -322,278 49,-463 357,-1980 680,-2357 301,-352 81,90 226,-264l219 -426 -229 -82c23,-526 180,-1076 332,-1466 301,145 100,-115 267,268 -53,-299 -35,-272 -261,-441 50,-648 256,-1167 580,-1597 224,-299 701,-1057 442,-1459 -116,243 -105,513 -303,835 -115,188 -27,102 -190,246 31,-547 284,-1070 541,-1496 300,-498 302,-975 577,-1445 359,-616 601,-1451 1037,-1997 235,-294 451,-333 659,-419l-318 660c-116,230 -179,390 -196,698 684,-1625 1185,-2059 2530,-3165 801,-659 1639,-1251 2554,-1749 525,-286 642,-200 1156,-349l78 -368c-513,145 -985,410 -1482,618l245 -243c429,-291 870,-426 1345,-602 639,-236 -56,111 495,-1 432,-88 888,-304 1245,-378 431,-90 1095,5 1396,-162l-782 -114c622,-607 1991,98 2341,193 795,215 1965,353 2790,335 -143,409 -255,289 -380,566 -72,158 -41,206 -131,384 -283,556 -800,949 -1020,1514 283,80 11,-65 267,194 158,-340 249,-343 401,-703 80,133 18,230 120,370l929 -1767c88,-158 163,-195 228,-363 66,-170 -10,-517 -92,-663 -201,173 -469,430 -916,150 231,-158 381,-77 641,-172 -221,-129 -1651,11 -2089,7 -99,-1 -305,10 -394,-11 -608,-143 -99,19 -329,-210l2416 31c333,-3 499,-34 651,-167 -1270,35 -2474,-72 -3765,-238 -523,-68 -625,-26 -1028,-304 -268,133 -92,113 -216,173 -312,153 -310,-1 -369,-37 462,-677 1296,-350 1494,-727l-834 99c200,-356 485,-408 915,-584 1276,-521 1911,-1075 3625,-460 1346,483 1939,1481 2863,2379 229,222 192,120 245,516 466,97 547,304 813,620l1303 1741c287,410 463,478 488,1070 -17,-18 -41,-73 -48,-57l-238 -274c-69,131 -122,190 -46,448 94,321 432,520 147,1476l-334 916c-145,286 -1057,1017 -1359,1104 -15,-417 283,-1488 411,-1931 111,-385 164,-446 232,-938 54,-391 279,-604 191,-838 -181,55 -71,-140 -194,116 -33,68 -43,325 -51,411 -348,37 -123,-29 -292,93 -117,692 -612,1625 -615,2123 260,-512 381,-1324 730,-1735 5,544 -285,1395 -400,1946 -172,820 -186,1278 -783,1602 -173,-1870 220,-1181 -650,-2986 -348,-722 -548,-1147 -1020,-1765 -50,-66 -142,-169 -190,-235 -289,-396 195,-303 482,-419 -111,-236 -483,-29 -981,-175 -265,360 -567,362 -1001,523 -282,104 -907,376 -1185,409 94,-153 182,-261 313,-437 356,-479 141,-403 88,-504 -55,220 -86,242 -227,445 -56,82 -79,120 -140,200 -141,184 -50,98 -219,223 108,-422 122,-94 185,-515l-269 178 80 -305c-323,280 -382,565 -601,855 -91,122 -215,270 -319,376 -403,413 -202,346 212,342 193,-1 260,-50 417,-156 632,-425 1172,-732 1944,-934 330,-86 798,-347 973,58 -385,20 -559,-45 -730,176 276,114 613,-37 946,-34 216,438 598,718 791,1299 -12,8 -34,4 -38,19 -4,15 -33,14 -39,16 -134,43 -112,-25 -233,134 376,496 426,-190 526,1347 15,221 29,1523 44,1559 276,-415 115,-1205 147,-1755l90 127c29,64 56,136 74,203l57 1325c-167,186 -182,308 -192,551l297 -68c-11,847 -212,690 -423,1300 -224,649 83,656 263,1137 76,-451 59,-758 313,-1054 13,503 17,1228 -57,1718 -127,829 -54,481 -32,1037 14,341 -174,1191 -327,1466 -200,357 -418,775 -707,1070 -340,345 -34,121 -339,165 -180,-737 692,-730 422,-1517l-192 39c-15,369 521,501 -1070,1652 -81,59 -136,105 -243,176 -15,10 -34,23 -50,33l-252 140c458,-975 1950,-3451 1631,-4223zm1760 -1611c-168,-514 -217,-843 -186,-1478l381 -329 -78 1622c-54,168 -39,93 -117,185zm366 -1879c32,-311 718,-933 1012,-1149l262 -152c-352,977 -509,601 -730,860 -51,59 -39,108 -119,219 -120,165 -178,199 -425,222zm-14280 -5893l-2675 2630c-223,260 -130,263 -569,272 141,-372 14,-114 333,-502 787,-958 1354,-1520 2324,-2240l422 -324c132,38 138,58 175,78l166 94c129,-316 522,-459 875,-608 -82,102 -37,66 -141,153l-1138 718c141,-142 117,-92 228,-271zm14778 -1007c382,126 1147,897 1264,1352l-167 -191c-248,-248 -142,62 -480,-355 -232,-285 -442,-498 -617,-806zm-366 -1048c19,-8 49,-45 57,-23l452 497c10,19 21,40 31,59l66 139c10,19 24,51 35,76l-194 -126c-381,-267 -482,-332 -491,-502l44 -120zm-575 -223c26,-177 -20,-123 68,-259 185,-286 27,-56 205,-176 79,298 14,317 -273,435z"/>
   <path class="fil0" d="M15739 76243c-243,-743 662,-1710 900,-1811 252,-108 102,42 307,-112l125 -175c-612,-454 -1730,1305 -1688,2056 415,582 845,477 1465,133 422,-233 995,-567 1032,-1089l-449 163c12,403 179,159 -142,450 -435,395 -937,601 -1550,385z"/>
   <path class="fil0" d="M8913 75984c-471,-1233 1476,-2441 1720,-2424 248,97 144,72 338,184 78,-223 -26,-305 -117,-449 -741,-74 -1899,1279 -2211,2002 -202,468 -58,685 176,938 541,12 1082,-240 1439,-494 552,-393 1076,-704 544,-899l-21 90c-1,11 -1,39 -2,51 -2,13 2,41 0,55 -45,259 -358,445 -661,649 -349,236 -770,442 -1205,297z"/>
   <path class="fil0" d="M14747 82206c-1,-352 51,-427 215,-662 64,-91 112,-156 182,-239 448,-527 900,-219 922,-834 -577,25 -1148,753 -1464,1208 -457,658 -73,1172 1343,332 648,-384 972,-532 1013,-900 -706,364 -1145,1106 -2211,1095z"/>
   <path class="fil0" d="M11375 81457c-324,241 -1542,1837 -2468,1372 -722,-362 330,-2423 967,-2505 241,-31 193,329 283,132 5,-13 26,19 41,25 245,-482 -130,-531 -484,-304 -206,132 -455,423 -615,644 -1126,1545 -741,2998 1029,1871 355,-227 1027,-835 1247,-1235z"/>
   <path class="fil0" d="M6589 80087c-340,170 -209,195 -443,482 -271,333 -1388,1254 -1662,760 -177,-318 288,-1121 407,-1330 329,-577 902,-327 888,-797 -735,-18 -1614,1306 -1535,2313 332,704 2115,-713 2345,-1428z"/>
   <path class="fil0" d="M4676 75581c-276,-686 645,-1650 906,-1825 309,-209 581,-77 613,-147 10,-21 37,-13 54,-22 -152,-404 -532,-194 -756,6 -143,127 -437,464 -551,619 -242,329 -827,1108 -465,1568 350,262 2079,-841 2197,-1342 -253,78 -1190,1280 -1998,1143z"/>
   <path class="fil0" d="M10466 70127c644,-1247 1224,-778 1291,-1380 -436,56 -1559,1115 -1616,1699 541,-34 811,-374 1213,-613 809,-481 966,-435 1162,-547 -350,-461 -1345,740 -2050,841z"/>
   <path class="fil0" d="M14631 69660c421,-858 1991,-1877 2161,-2472 -110,55 -2375,2099 -2161,2472z"/>
   <path class="fil0" d="M8504 70283c148,-266 230,-285 341,-651 -657,144 -2349,2070 -2556,2821 165,-181 71,-112 180,-319 407,-769 1377,-1563 1776,-2014 239,65 165,1 259,163z"/>
   <path class="fil0" d="M14176 68947c167,-282 442,-1112 1369,-1588 271,-139 377,-171 616,-351 -373,-222 -1884,1202 -2013,1485 -31,68 -57,123 -60,205 -17,462 -7,118 88,249z"/>
   <path class="fil0" d="M13386 71851c158,-72 521,-604 639,-772 462,-655 1942,-1844 2228,-2195 -370,72 -1199,1000 -1600,1385 -960,923 -702,882 -1267,1582z"/>
   <path class="fil0" d="M13296 68139c241,-427 325,-493 710,-795 168,-131 302,-238 533,-325 388,-147 286,-17 605,-55l103 -274c-754,-70 -1980,960 -1951,1449z"/>
   <path class="fil0" d="M7882 78454c586,-416 1013,-757 1536,-1110 267,-180 506,-365 782,-565 730,-529 695,-101 806,-493 -235,-147 -670,257 -834,391l-2290 1777z"/>
   <path class="fil0" d="M22255 70811c98,-323 268,-972 313,-1230 -342,129 -660,2416 -647,2459l334 -1229z"/>
   <path class="fil0" d="M18349 72378c221,-127 149,-137 268,-318l995 -962c-288,-153 -1110,840 -1263,1280z"/>
   <path class="fil0" d="M18165 79726c392,-70 737,-562 820,-915 -322,110 -645,597 -820,915z"/>
   <path class="fil0" d="M19658 76886c136,-114 546,-552 -10,-686 -68,146 -84,69 -93,341 -13,383 34,248 103,345z"/>
   <path class="fil0" d="M1115 84111c193,-130 904,-1180 1343,-1665 126,-138 388,-362 453,-466 -295,231 -1716,1750 -1796,2131z"/>
   <path class="fil0" d="M9391 78445c233,-126 115,-140 317,-378 345,-409 717,-495 1089,-1018 -96,41 -1360,1001 -1406,1396z"/>
   <path class="fil0" d="M13332 75412c-306,66 -348,67 -408,339l600 -36c3,-202 -68,-199 -192,-303z"/>
   <path class="fil0" d="M14469 74683c-197,-216 -250,-192 -441,0 201,131 242,146 441,0z"/>
   <path class="fil0" d="M19140 77637c425,-52 163,83 264,-170 -234,-231 -222,-42 -264,170z"/>
  </g>
  <g id="_1547673584">
   <path class="fil0" d="M50245 44176c200,-177 538,-251 785,-367 113,-53 60,-23 163,-79l495 -399c-308,206 -515,340 -916,487 -362,133 -748,64 -1106,266 -478,271 -1421,-1378 -1932,-1411 -335,-20 -740,387 -1142,508 -953,288 -604,158 -852,639 -1181,12 -1854,144 -2513,-548 -478,-502 -973,-1144 -1016,-2115 -114,352 -1,512 79,826l-109 -99c-10,-12 -34,-37 -45,-52 -11,-16 -26,-39 -37,-56 -11,-16 -22,-39 -32,-56l-421 -924c-249,-551 -297,-738 -345,-1454 -76,-1121 -361,-1498 -129,-2684l168 -360c-87,2940 722,3614 789,3925 -13,-157 -605,-1311 -683,-2902 -45,-912 234,-2253 1080,-2722 -225,595 -492,2270 -518,3143 -32,1033 184,2335 803,2750 -725,-868 -766,-2039 -675,-3425 42,-638 332,-2162 596,-2728 117,-254 338,-378 508,-588 274,108 414,245 270,-242 232,-97 245,-147 475,-285 295,-178 271,-64 464,-284l-150 344c-107,144 -148,203 -242,342 -158,235 -294,454 -401,706 478,-647 770,-1221 1489,-1635 411,-238 398,-206 743,-28l65 -269c957,-360 2101,497 2691,855 14,-228 -5,-206 -40,-389l299 -6c-67,155 -48,122 -145,247 251,-94 149,-84 477,-142l173 -71c209,-5 567,-58 813,-117 38,-9 229,-61 314,-98 325,-144 171,-58 228,-232 -162,116 -329,178 -591,231 -96,19 -282,52 -371,63l-368 -59c548,-486 2360,-357 3236,-270l-171 320c793,-319 1480,467 1710,995 486,1116 414,2517 602,3727 181,1160 -292,2545 -658,3578l103 52c4,2 29,14 33,16 4,2 22,10 33,16 -60,299 -133,357 -339,506l-292 209c-484,757 -1019,1138 -1872,1501 228,117 262,61 457,-62 1051,-664 1567,-1547 1766,-1632 54,-24 143,-67 181,-88 -57,521 -669,1105 -949,1302 421,-139 730,-740 1046,-1066 126,589 292,1299 773,1527 -88,-98 -172,-189 -266,-345 -142,-237 -116,-260 -198,-471 23,16 57,10 69,47l1051 774c1764,1503 3530,-191 4224,-218 455,119 525,318 1023,436 457,108 644,373 1138,308 750,-98 1391,-812 1972,-1061l-36 233c335,-380 343,-582 836,-663 -72,266 -52,202 -176,426 226,-203 245,-376 431,-604 161,-195 449,-322 630,-471 -59,15 -139,41 -196,66 -16,7 -41,19 -59,27l-189 96c11,-22 29,-79 34,-65 54,132 70,-128 94,-178 12,-23 43,-89 54,-113 296,-653 827,-1768 1401,-2218 -30,969 -264,1890 -1129,2324 299,229 828,-690 924,-931 470,-1179 737,-3752 546,-4948 -297,-1859 224,-2088 -942,-3700 -253,-350 -717,-556 -1088,-779 -358,-214 -183,-237 -713,-153 -300,493 -749,525 -1258,803 -337,184 -687,450 -1052,557 -87,26 -126,42 -223,42 -92,1 -74,-3 -157,-18l-140 -53c-46,-151 -28,-1505 -84,-1949 -90,-703 -169,-1296 -227,-2053l-1174 -5648c-182,-587 -344,-1120 -524,-1755 -255,-894 -1098,-2685 -1198,-3426 324,23 520,35 806,107 480,121 198,-40 752,-2 -18,1414 226,2749 662,3845 303,760 1039,2228 1779,2716 -967,-977 -1425,-2070 -1892,-3282 -4,-11 -15,-35 -24,-51l53 -101c20,12 360,730 433,868 870,1652 2620,4037 4217,4878l3752 1469c725,223 1325,344 1974,649 408,192 1223,1042 1621,652 16,14 39,16 47,42l206 142c97,-103 135,-149 256,-103 4,1 247,144 316,173 -662,-833 -727,-353 -1594,-2007 -1654,-3157 -1108,-4542 -2697,-8191 -816,-1876 -1928,-2710 -3536,-3699 -789,-485 -1948,-572 -2914,-298 -1269,358 -1578,554 -2216,1401 -419,-15 -398,-84 -746,-193 -857,-267 -1575,-165 -2387,-630 -407,228 -470,266 -776,626 -239,283 -481,530 -709,802 -1270,1519 -1442,1747 -2466,3436 -1691,2791 -2760,4754 -3998,7810l-590 1680c-164,459 -44,155 -294,456 -58,742 -104,1039 -354,1608 -208,-90 -174,-114 -391,-205 -184,-77 -341,-96 -506,-166 -511,-217 -559,73 -965,-270 -6,27 0,72 -5,88l-45 113c-56,137 -1454,408 -2226,944l-553 377c-11,8 -35,30 -43,36 -9,6 -28,24 -41,37l-123 -163 -487 254c169,259 125,349 -277,385 113,-250 64,-152 255,-344 -303,146 -759,518 -833,850l260 -241c213,-174 177,-128 490,-103 -137,461 -636,739 -907,1115l157 -771c-238,166 -674,1236 -789,1486 -664,1446 -86,4598 561,5821 273,515 496,978 873,1402 445,501 535,757 1324,1033 363,127 1645,106 1941,-91 271,-180 432,-261 757,-434 470,-249 278,-344 911,-289 145,465 272,636 993,851 409,121 1313,98 1513,171l-411 97c-173,13 -342,22 -514,14 -483,-20 -601,-113 -952,-213l280 189c803,313 1733,56 2495,-209 818,-284 1778,-385 2380,-1097l-642 426c-87,-175 -249,-4 23,-270 -402,108 -314,113 -92,324 -448,-77 -629,128 -1071,292 -418,156 -804,262 -1266,302zm-2845 -1203c565,-64 644,63 916,356 220,236 444,411 622,658 -347,-74 -335,-45 -458,-349l-187 130c-9,8 -30,31 -45,47 -267,-360 -149,32 -494,-352l-354 -490zm14302 616l1014 -665c-528,85 -475,465 -1356,371 -1391,-148 -1119,-902 -2237,-486 -942,350 -1240,1045 -2851,327 -410,-183 -614,-198 -474,-631 -264,167 56,59 -298,139 -306,-519 -1166,-935 -831,-1843 263,-713 492,-1477 569,-2303 241,-2560 -464,-2995 -227,-3596l462 -1072c282,371 43,1795 45,1971 5,474 64,1821 360,1987 -148,-597 -297,-1147 -234,-1889 47,-548 8,-1157 284,-1784 -250,-347 53,-40 -121,-88l-49 4c77,-690 223,-450 380,-334 182,135 -37,244 105,41 341,-489 123,-979 808,-1160 -231,555 -1095,2238 -620,3227 -24,-886 37,-2104 540,-2834 368,-535 370,-104 630,-373 -144,-365 -23,-53 -399,-235 712,-351 270,-188 1067,-250 657,-51 514,-91 1065,278 294,197 1031,597 1415,666 528,95 273,-126 489,294l168 -337c110,153 72,172 219,226 144,-499 264,-220 678,-508 617,-428 1010,-922 1944,-1031l329 -161c10,-8 30,-31 49,-42 180,364 740,570 1441,1417 684,825 698,861 751,2214 32,810 349,1947 -56,2654 -92,159 -53,18 -111,227 -1,1 -36,253 -41,288 -119,737 -466,1113 -642,1637 186,93 18,-122 239,9 -228,224 -99,276 -297,334 -197,57 228,-144 -96,2 -126,57 -289,462 -394,631 -255,412 -542,870 -818,1283 -293,435 -763,660 -1217,909 -599,328 -732,573 -1682,486zm4183 -3582c-97,87 97,320 36,104 -1,-2 106,-232 -36,-104zm-9244 -2908c94,-154 -9,-239 -73,-513 -59,-251 -43,-586 -137,-781 -9,638 152,824 210,1294zm-852 -1583l416 -1641c-209,349 -417,1167 -416,1641zm132 -1835c-128,67 151,501 41,125 -4,-12 138,-220 -41,-125zm-7198 -963c35,-466 11,-1006 318,-1348 -15,301 -80,409 51,607 221,-254 186,-482 278,-865 105,-437 131,-750 338,-991 119,615 -224,1468 -422,2152 -119,408 -131,439 -563,445zm1571 -5461c8,444 14,1027 -10,1465 -19,346 -155,906 -440,1108 3,-509 78,-906 9,-1401 -57,-412 122,-907 441,-1172zm1888 -2470l92 474c118,-626 1640,-3725 2242,-4444 282,-338 263,-170 321,-695 -399,223 -339,404 -596,837 -601,1009 -1229,1717 -1696,2766 -398,896 -1143,2133 -1445,2946 -141,380 -234,850 -486,1043 -17,-1193 -274,-851 188,-1834 479,-1017 645,-1008 1150,-2225 167,-402 231,-394 426,-743l1703 -2777c1010,-1651 443,-722 1545,-2089l1210 -1417c521,-395 498,250 36,893 -109,150 -171,291 -305,462 -81,102 -14,170 -233,108 -12,-4 -39,-19 -50,-23l-107 -64c-177,392 -566,779 -670,1103 131,-79 23,12 187,-150 79,-77 109,-124 157,-182 40,75 14,26 34,142l18 135c1,7 -1,30 5,44 188,-386 688,-1075 1028,-1263l-263 1256c230,-446 129,-784 457,-1102 258,653 405,1350 582,2057 103,-210 -1,-16 59,-194l101 -263c488,1923 1411,4541 1747,6383 199,1088 570,2116 806,3242 248,1186 475,2341 616,3615 -464,-54 -1503,-629 -1602,-725 -148,-142 -102,25 -70,-153 37,-205 13,114 138,-148 -1778,-22 -1875,-469 -2883,652 -657,730 -708,408 -1084,855 -315,376 -383,772 -797,1137 -818,-1082 135,-1283 -1889,-2161l-112 -257 561 -74c-1237,-60 -2713,30 -3792,314 94,-792 631,-1690 681,-1849 109,-346 76,-698 185,-1077 118,-413 217,-523 343,-922 182,-575 500,-1181 734,-1806 134,-357 458,-1394 728,-1827zm5670 -4777c-171,361 529,1983 600,2056l-600 -2056zm-2492 -185c-226,-298 -193,21 -40,-376 25,-65 116,-112 187,-341 -14,14 -35,16 -41,42l-117 134c-84,108 -98,137 -174,250 -113,170 -192,265 -273,494 223,-233 116,-209 344,-253 11,404 -13,191 -313,696 -86,145 -214,404 -329,624 51,-30 1164,-1838 1234,-1995l-478 725zm-530 194l24 33c-2,-3 -16,-44 -24,-33zm-2669 5250c-4,6 12,10 12,16 0,3 5,7 5,7 -1,-1 56,-125 -17,-23zm11942 -4985c158,269 256,307 523,491 3028,2088 3685,3692 5753,6144 916,1085 1850,1628 2100,2267 -322,-78 -2100,-1311 -2814,-1553 -767,-259 155,530 -3341,-952 -951,-403 -1144,-639 -1839,-1126 -2961,-2072 -4350,-7339 -3864,-7826 247,-247 704,-39 776,377l57 370c137,580 1158,2983 1552,3484 -107,-417 -602,-1351 -792,-1818 -182,-449 -598,-1489 -631,-1966 574,209 1922,1945 2520,2108 -250,-472 -427,-216 -594,-676 332,104 837,563 1041,878l-447 -202zm-901 1938c-101,-227 6,-103 -196,-262l196 262zm-4600 -3224c78,89 47,40 118,174 29,54 63,134 83,185 495,1258 497,1727 677,2859 45,280 -44,66 71,254l-34 -794c129,120 49,-30 182,237l297 970c153,444 223,864 307,1389 342,2150 753,2643 979,5616 39,509 473,2616 44,2955 -163,-305 -418,-2965 -617,-3607l-860 -3364c-153,-904 -797,-3049 -1103,-4124 -31,-109 -82,-256 -128,-391 -92,-274 -107,-205 -39,-439 74,-258 99,199 106,-369 2,-135 -40,-261 -57,-438 -35,-359 -23,-749 -26,-1113zm-648 -1406c358,307 444,808 458,1430 14,656 139,1158 160,1811l-200 -316c-36,-92 -85,-274 -117,-375 -78,-246 -145,-474 -202,-735 -114,-522 -126,-1193 -99,-1815zm-142 1035c-590,-550 -329,-1194 -323,-1667 458,304 328,655 323,1667zm10129 -616c-330,-138 -449,-334 -672,-552l-1316 -954c-1582,-898 -2137,-675 -2496,-999 1352,74 1800,262 2696,870 379,258 1575,1158 1788,1635zm-7089 -1016c798,-1868 3536,-1193 5192,-263 181,101 189,134 400,282 1016,716 2055,1596 2575,2752 299,665 485,1253 726,1976 504,1511 493,2238 763,3208 97,350 228,676 270,1082 -348,-352 -432,-1083 -538,-1330 -259,511 836,2128 955,2596 -379,-235 -398,-210 -695,-588 -185,-236 -363,-458 -555,-714 -1163,-1547 -2009,-2815 -3576,-4182 -1949,-1699 -1715,-1813 -4122,-3547l-1395 -1272zm-1861 333l-53 100c-202,-262 -211,-197 -275,-647 291,49 584,112 837,161 704,139 570,86 649,337 -261,264 -377,189 -821,176 -122,-220 -106,-164 -283,-324 -180,275 32,-45 -54,197zm-562 -195c6,-15 27,40 40,60 -468,8 -471,-74 -465,-549 398,202 389,567 425,489z"/>
   <path class="fil0" d="M68628 20643c23,83 27,121 60,206 136,352 203,261 303,619l-441 -501 78 -324zm-4889 -4374c793,121 1147,182 1697,574 1727,1233 1870,1709 2908,3425 156,258 142,152 147,437 -332,-77 -792,-943 -1327,-1369 -373,-297 -799,-648 -1286,-739 -207,-38 -200,-93 -276,108 203,138 1262,122 2658,1984 251,335 417,664 702,893 -34,215 8,-5 16,-8l462 308c-601,-888 -1069,-1825 -1612,-2711 -196,-322 -404,-526 -640,-880 -237,-355 -402,-502 -653,-774 -722,-783 -2823,-1837 -2796,-1248z"/>
   <path class="fil0" d="M72541 28034c58,-95 169,212 -31,-477 -387,-1326 -546,-2254 -1103,-3704l-1132 -3002c-76,-211 -133,-314 -188,-499 -78,-265 -10,-354 -278,-357 22,308 1800,4529 2152,5857 101,381 189,673 295,1058 93,336 181,818 285,1124z"/>
   <path class="fil0" d="M65588 39799c281,-532 490,-763 601,-1557 188,-1343 259,-2645 -151,-4055 -86,-295 -523,-1344 -668,-1560 -150,191 -129,274 142,764 800,1451 920,4232 387,5631 -83,220 -301,628 -311,777z"/>
   <path class="fil0" d="M53311 35724c-101,221 -127,454 -340,588 -217,136 -543,148 -771,17 -214,-123 -324,-371 -293,-696 45,-469 202,-230 298,-676 -664,163 -585,1266 -131,1571 635,428 1457,-356 1237,-804z"/>
   <path class="fil0" d="M64402 33894c250,218 713,312 831,1567l-32 2336c177,-422 331,-2472 -121,-3488 -83,-185 -486,-704 -678,-415z"/>
   <path class="fil0" d="M46225 38622c78,-139 -29,-765 56,-1067 117,-423 189,-574 -56,-853 -375,332 -254,1601 0,1920z"/>
   <path class="fil0" d="M57600 36287c10,-2057 511,-2311 552,-2617 18,-139 -11,-81 -35,-132 -314,339 -920,2256 -517,2749z"/>
   <path class="fil0" d="M43572 39234c-493,-1043 -240,-1960 42,-3016 -547,397 -561,2752 -42,3016z"/>
   <path class="fil0" d="M63936 35997c53,-122 176,-2488 -337,-2678 -25,76 233,844 262,1134 44,436 -67,1190 75,1544z"/>
   <path class="fil0" d="M63331 41881c120,-87 135,21 263,-414 137,-463 445,-1570 174,-1918 -132,228 -32,881 -88,1221 -64,380 -220,754 -349,1111z"/>
   <path class="fil0" d="M53189 40251c-266,-80 -315,57 -328,-253 -222,380 81,-144 13,711 243,-134 746,-826 652,-1057 -187,182 -241,311 -337,599z"/>
   <path class="fil0" d="M60798 42573l76 -123c28,-75 379,-1443 823,-1882 -424,66 -846,1433 -899,2005z"/>
   <path class="fil0" d="M48103 44246l-280 -257c-72,-58 -68,-54 -139,-116 -220,-197 -184,-184 -363,-451 -346,333 622,773 782,824z"/>
   <path class="fil0" d="M47750 41181c87,-261 -107,-378 -260,-524 -140,270 57,427 260,524z"/>
   <path class="fil0" d="M46781 40132c231,-137 212,-154 34,-324 -184,156 -189,129 -34,324z"/>
   <path class="fil0" d="M52803 38236c157,-97 202,-80 85,-356 -185,155 -225,104 -85,356z"/>
   <path class="fil0" d="M46406 39076c255,-146 203,-73 157,-236 -2,0 39,-229 -157,1 -92,108 -48,91 0,235z"/>
  </g>
 </g>
</svg>
